<svg width="62" height="45" viewBox="0 0 62 45" fill="none" xmlns="http://www.w3.org/2000/svg">
<g clip-path="url(#clip0_116_9)">
<path d="M5.85826 12.1916L11.4923 15.2953L14.2486 16.8148L15.6297 17.5757C15.9703 17.7607 16.5253 17.9885 16.6606 18.1964L16.3396 17.4651L16.3435 17.418L16.6348 16.6101C16.5072 16.8546 15.8089 17.1699 15.5011 17.3494L14.1203 18.1726L11.0109 20.0186L4.90665 23.6482C4.17217 24.0819 3.77135 24.9749 4.13197 25.7965C4.45654 26.5361 5.43576 26.9722 6.17245 26.5323L12.8544 22.5578L16.0805 20.6432C17.1192 20.0217 18.6955 19.4212 19.2241 18.2285C19.567 17.4599 19.4947 16.6039 18.9718 15.9588C18.6046 15.5013 18.0678 15.2594 17.5675 14.989L14.3493 13.2199L7.68421 9.55084C6.96099 9.15172 6.05922 9.19313 5.52932 9.97038C5.08507 10.6194 5.13284 11.7986 5.86187 12.1998L5.85826 12.1916Z" fill="#F85F4C"/>
<path d="M24.9558 12.3897C28.1549 16.4344 31.9827 19.938 36.2659 22.7067L36.5482 19.9381L22.8106 26.5006L24.0764 29.3847L24.5382 29.0879C25.2582 28.6213 25.6807 27.7776 25.3129 26.9395C24.9991 26.2246 23.9925 25.7371 23.2724 26.2037L22.8106 26.5006C22.0905 26.9672 21.6681 27.8108 22.0359 28.649C22.3857 29.446 23.3072 29.7506 24.0764 29.3847L37.814 22.8223C38.8456 22.3297 39.0638 20.6862 38.0963 20.0537C34.0221 17.4157 30.4132 14.1431 27.3676 10.2921C26.1229 8.71589 23.7286 10.8197 24.9697 12.3877L24.9558 12.3897Z" fill="#F85F4C"/>
<path d="M47.2759 18.2252L57.3996 26.9317L58.0564 24.0354C54.4438 25.2365 50.9182 26.7249 47.5475 28.5666C46.7541 28.9998 45.9679 29.4495 45.1947 29.9177C44.2443 30.4949 43.2884 31.16 43.3656 32.4397C43.4428 33.7195 44.6874 34.4034 45.7868 33.8869C46.8862 33.3703 47.1983 32.0857 46.4947 31.1403C45.2945 29.5317 42.8943 31.6335 44.0967 33.2359L44.1488 33.3101L43.9061 31.7424L43.8796 31.8158L44.359 31.1241L44.7871 30.8842L45.5888 30.9382L45.4957 30.9046L46.1474 31.3748L46.0939 31.2863L46.4299 32.4311L46.438 32.2266L46.1467 33.0345C46.3116 32.7412 47.0943 32.4286 47.3941 32.2531C47.8609 31.9788 48.3371 31.7148 48.8111 31.4569C49.8817 30.8746 50.9688 30.319 52.0682 29.8025C54.189 28.8035 56.358 27.9256 58.5665 27.1934C59.865 26.7625 60.2822 25.2045 59.2234 24.2971L49.1004 15.5701C48.4695 15.0244 47.4067 15.3121 46.9456 15.9896C46.4201 16.7546 46.6472 17.6734 47.2781 18.2191L47.2759 18.2252Z" fill="#F85F4C"/>
</g>
<defs>
<clipPath id="clip0_116_9">
<rect width="56.5073" height="25.4144" fill="white" transform="translate(8.72809 0.935699) rotate(19.8287)"/>
</clipPath>
</defs>
</svg>
