<svg width="44" height="23" viewBox="0 0 44 23" fill="none" xmlns="http://www.w3.org/2000/svg">
<g clip-path="url(#clip0_128_69)">
<path d="M1.47898 11.6857L6.24628 12.0766L8.57897 12.2686L9.74761 12.3644C10.035 12.3863 10.4809 12.3719 10.636 12.4718L10.1956 12.0733L10.1839 12.0402L10.1356 11.4034C10.1235 11.6081 9.74566 12.0346 9.59147 12.2501L8.90521 13.2289L7.35744 15.4278L4.32055 19.7485C3.95423 20.2663 3.95408 20.9942 4.44887 21.4419C4.89419 21.8449 5.69132 21.8427 6.05727 21.3201L9.38109 16.5895L10.9872 14.3085C11.5027 13.5707 12.3895 12.6834 12.3851 11.7133C12.3838 11.0874 12.0741 10.5286 11.523 10.2501C11.1347 10.0515 10.6968 10.0507 10.275 10.0196L7.55305 9.79885L1.91404 9.33819C1.30186 9.28753 0.702622 9.59012 0.579679 10.2788C0.47582 10.8544 0.867169 11.6399 1.48393 11.6902L1.47898 11.6857Z" fill="#F85F4C"/>
<path d="M14.4967 6.00704C17.8984 7.77754 21.562 8.98959 25.3109 9.56437L24.6597 7.59999L17.3364 16.2341L19.0731 17.8057L19.2961 17.4637C19.6426 16.9279 19.6724 16.2269 19.1677 15.7702C18.7373 15.3807 17.9059 15.3563 17.5593 15.8921L17.3364 16.2341C16.9899 16.7698 16.96 17.4708 17.4647 17.9275C17.9447 18.3618 18.6626 18.288 19.0731 17.8057L26.3964 9.17156C26.9464 8.52334 26.5942 7.3418 25.7452 7.20719C22.1779 6.65746 18.7332 5.53558 15.4946 3.84976C14.1703 3.15919 13.1862 5.31542 14.5055 6.00152L14.4967 6.00704Z" fill="#F85F4C"/>
<path d="M31.4168 3.17244L40.9358 5.99817L40.4998 3.8331C38.4143 5.74768 36.4752 7.8307 34.7489 10.1063C34.3424 10.6417 33.9459 11.1861 33.5638 11.7391C33.0946 12.42 32.6485 13.1623 33.0904 14.0071C33.5324 14.8518 34.585 14.9371 35.1737 14.2519C35.7623 13.5668 35.5831 12.6002 34.8179 12.173C33.514 11.4469 32.5253 13.6035 33.8288 14.3247L33.8868 14.3592L33.2449 13.3694L33.2493 13.4273L33.364 12.8121L33.5814 12.519L34.1418 12.3116L34.0684 12.3171L34.6537 12.4377L34.5904 12.394L35.1669 13.0685L35.1101 12.9272L35.1584 13.5641C35.181 13.3149 35.617 12.8645 35.7669 12.6542C36.0001 12.326 36.2429 12.0019 36.486 11.6826C37.0351 10.9617 37.6036 10.2539 38.1923 9.56874C39.3271 8.2454 40.5316 6.98956 41.8072 5.82053C42.557 5.13291 42.3658 3.94886 41.3712 3.65546L31.8465 0.815605C31.2524 0.637424 30.6188 1.15611 30.5122 1.75618C30.3885 2.43517 30.8222 2.98944 31.4164 3.16762L31.4168 3.17244Z" fill="#F85F4C"/>
</g>
<defs>
<clipPath id="clip0_128_69">
<rect width="42.0209" height="18.8991" fill="white" transform="translate(0 3.17519) rotate(-4.33351)"/>
</clipPath>
</defs>
</svg>
