<svg width="39" height="38" viewBox="0 0 39 38" fill="none" xmlns="http://www.w3.org/2000/svg">
<g clip-path="url(#clip0_128_125)">
<path d="M36.4301 13.0747C36.5382 12.2475 36.6101 11.4231 36.7523 10.6C36.8798 9.86276 36.9616 9.12158 36.9591 8.37164C36.9581 8.05605 36.8624 7.74965 36.8101 7.44018C36.7522 7.09748 36.6922 6.73227 36.4841 6.44242C36.2909 6.17347 36.0115 6.01943 35.7017 5.92299C35.3458 5.81219 34.9851 5.67452 34.6238 5.58588C34.2634 5.49745 33.8914 5.56018 33.5254 5.52217C33.096 5.47755 32.671 5.38852 32.2458 5.31456C31.4376 5.17409 30.6325 5.17848 29.8237 5.04899C29.3496 4.97314 28.8763 4.89325 28.4031 4.81266C27.9911 4.74249 27.5569 4.72431 27.1661 4.57017C26.9623 4.48981 26.7698 4.40008 26.5524 4.36011C26.3585 4.32445 26.1683 4.3314 25.9822 4.25873C25.5951 4.1076 25.2581 3.99829 24.8411 3.93967C24.4268 3.88135 24.0195 3.8061 23.6 3.818C23.361 3.82479 23.1538 3.78585 22.9485 3.72997C22.8999 3.71536 22.8509 3.70146 22.8019 3.68774C22.6701 3.64763 22.5365 3.60351 22.3926 3.56157C21.9603 3.43583 21.4956 3.35346 21.028 3.31378C20.5101 3.2179 19.9927 3.10909 19.4712 3.03889C18.8813 2.95951 18.2861 2.93027 17.6994 2.82579C16.5996 2.62991 15.5246 2.32118 14.4022 2.27577C13.8207 2.25224 13.2308 2.1717 12.6502 2.11129C12.3938 2.08468 12.1459 2.08532 11.8891 2.08446C11.5557 2.08324 11.2405 1.9859 10.9084 1.96871C10.3949 1.94214 9.87625 1.96296 9.36697 1.92653C9.1436 1.91057 8.92026 1.90305 8.69698 1.88874C8.42586 1.87146 8.15474 1.78437 7.88446 1.78647C7.46323 1.78981 7.18465 2.06467 7.10932 2.47139C7.02891 2.90546 6.87966 3.31927 6.76092 3.75083C6.47431 4.7932 6.16671 5.8261 5.88376 6.87254C5.568 8.04032 5.43351 9.28423 5.21776 10.475C4.78358 12.8719 4.36045 15.2709 3.93229 17.6689C3.71447 18.8894 3.51406 20.1142 3.25345 21.3265C3.1432 21.8395 3.03124 22.3553 2.98713 22.8791C2.96783 23.1084 2.97087 23.3369 2.96303 23.5664C2.95172 23.8958 2.88445 24.2277 2.90799 24.5581C2.93682 24.9632 3.06124 25.4972 3.34545 25.8023C3.67625 26.1574 4.23884 26.2489 4.67186 26.44C5.1117 26.6341 5.58391 26.8117 6.04983 26.9335C6.63563 27.0867 7.25577 27.0958 7.84096 27.2496C8.34899 27.3831 8.81157 27.5736 9.33762 27.6614C9.91865 27.7584 10.5008 27.8198 11.0643 27.9997C11.5842 28.1656 12.0439 28.1324 12.5782 28.1964C12.9417 28.2398 13.3033 28.3158 13.6643 28.3913C13.6622 28.3973 13.6593 28.4023 13.6574 28.4087C13.4758 29.005 13.2945 29.5931 13.1554 30.2008C13.0714 30.5681 12.8805 31.09 12.903 31.5239C12.7402 31.4651 12.569 31.4185 12.3776 31.382C11.9148 31.294 11.4296 31.1692 10.9558 31.1914C10.7667 31.2003 10.5851 31.2458 10.4009 31.2844C10.2058 31.3254 10.0019 31.3129 9.81019 31.3623C9.38927 31.4708 9.28954 31.7607 9.33076 32.1486C9.36655 32.4848 9.2346 32.8224 9.35123 33.1537C9.4923 33.5546 9.86921 33.749 10.2729 33.7737C10.4887 33.787 10.7029 33.7593 10.918 33.7853C11.1588 33.8142 11.3994 33.8815 11.6372 33.9286C12.1665 34.0333 12.698 34.1281 13.2378 34.1537C14.2826 34.2034 15.2848 34.3895 16.304 34.6309C16.7719 34.7417 17.2107 34.9125 17.6875 34.9952C18.2558 35.0937 18.8223 35.2038 19.3919 35.2947C19.8968 35.3752 20.4054 35.4325 20.9171 35.4338C21.3403 35.435 21.7414 35.5655 22.1608 35.565C22.9894 35.5642 23.0532 34.7122 23.123 34.0716C23.1595 33.738 23.1368 33.3433 22.8712 33.1021C22.7332 32.9767 22.571 32.9317 22.3904 32.9197C22.1058 32.9008 21.8305 32.8932 21.547 32.8529C21.1571 32.7978 20.7686 32.8321 20.3813 32.813C20.5418 32.5521 20.6169 32.2281 20.6625 31.9353C20.7358 31.4663 20.6554 30.9877 20.7418 30.523C20.8028 30.1949 20.9368 29.8497 20.8401 29.531C21.3165 29.6017 21.7949 29.7197 22.2605 29.8019C23.603 30.0393 24.9456 30.2767 26.2881 30.514C26.7604 30.5975 27.2311 30.6748 27.7045 30.7413C27.7293 30.7681 27.7616 30.7917 27.8035 30.8093C28.1016 30.9341 28.4295 30.9466 28.7427 31.0172C29.1606 31.1115 29.5788 31.2034 29.9976 31.2937C30.3438 31.3683 30.6701 31.3892 31.0192 31.4283C31.3663 31.4674 31.6691 31.5157 31.9787 31.308C32.4487 30.9926 32.6728 30.3525 32.8428 29.8385C33.0932 29.0817 33.1652 28.2733 33.3023 27.4911C33.4513 26.6391 33.5998 25.7871 33.75 24.9354C33.8154 24.5647 33.8641 24.1866 33.9602 23.8222C34.0594 23.4462 34.2146 23.0897 34.271 22.7034C34.2987 22.514 34.3082 22.348 34.3813 22.1703C34.4471 22.0102 34.5214 21.8626 34.5686 21.6945C34.6866 21.2755 34.7064 20.8356 34.785 20.409C34.9309 19.6165 35.2872 18.8817 35.4384 18.0891C35.5978 17.2534 35.8479 16.4386 35.9978 15.6011C36.1478 14.7613 36.3196 13.92 36.4301 13.0747ZM20.3467 33.4875C20.7335 33.5293 21.106 33.4841 21.4948 33.55C21.6789 33.5812 21.8609 33.6116 22.0476 33.6236C22.2268 33.6352 22.3557 33.5626 22.416 33.7327C22.4828 33.9206 22.3775 34.2415 22.3532 34.4341C22.342 34.5216 22.3447 34.7787 22.2577 34.8427C22.1691 34.9079 21.904 34.823 21.8105 34.8049C21.0312 34.6533 20.2284 34.7143 19.4389 34.5878C18.6042 34.4541 17.7306 34.3515 16.9256 34.0924C16.1831 33.8534 15.3832 33.7072 14.6143 33.5742C13.8105 33.435 12.9965 33.4869 12.1901 33.3461C11.8052 33.2789 11.4216 33.1761 11.0345 33.1253C10.7605 33.0892 10.1038 33.2415 9.99189 32.9042C9.94175 32.7534 10.022 32.5375 10.0334 32.3828C10.0381 32.3205 10.0427 32.2501 10.0399 32.1888C10.0377 32.1372 10.0319 32.0861 10.0222 32.0356C10.0107 31.9695 10.0118 31.9737 10.0256 32.0481C10.1342 31.9984 10.3666 32.0197 10.494 31.9914C10.6691 31.9524 10.8429 31.9064 11.0231 31.8984C11.4731 31.8784 11.9542 32.0216 12.3979 32.0919C12.7863 32.1534 13.1742 32.3259 13.5666 32.2638C13.6133 32.2564 13.6498 32.2379 13.6773 32.213C13.7323 32.2419 13.7865 32.2728 13.8472 32.2928C14.0739 32.3677 14.3011 32.2789 14.5331 32.2911C14.83 32.3069 15.1274 32.377 15.4171 32.4394C16.2938 32.6282 17.1918 32.7405 18.077 32.8993C18.067 33.0041 18.1233 33.1122 18.2661 33.1442C18.6445 33.229 19.0144 33.1002 19.3783 33.2536C19.6902 33.3849 20.0099 33.4512 20.3467 33.4875ZM14.2215 28.5076C14.2217 28.5057 14.2214 28.5041 14.2216 28.5022C14.2455 28.5066 14.2695 28.5114 14.2935 28.5156C15.6464 28.7548 17.0028 28.9794 18.351 29.2441C18.9797 29.3675 19.5806 29.4464 20.2172 29.4708C20.2106 29.5308 20.2238 29.5952 20.2675 29.659C20.372 29.8111 20.2387 30.116 20.2004 30.2795C20.1505 30.4923 20.1265 30.7053 20.1217 30.924C20.1125 31.3442 20.1303 31.7422 20.017 32.1533C19.9818 32.2808 19.9235 32.5431 19.7923 32.6134C19.7359 32.6436 19.6585 32.645 19.5742 32.6324C19.4834 32.5985 19.3916 32.5684 19.2952 32.5554C19.2878 32.5544 19.2806 32.5542 19.2734 32.5533C19.2021 32.5303 19.1366 32.5088 19.086 32.498C18.4348 32.3581 17.7704 32.2644 17.1149 32.1466C16.4893 32.0341 15.8729 31.8948 15.2511 31.7649C14.9651 31.7053 14.6555 31.6376 14.3621 31.6492C14.238 31.6541 14.1446 31.6895 14.0188 31.6462C13.9313 31.616 13.8555 31.5445 13.7649 31.5117C13.7379 31.5019 13.6797 31.4792 13.6226 31.4636C13.6255 31.4135 13.6306 31.3636 13.6382 31.3137C13.672 31.026 13.7462 30.7441 13.8037 30.4607C13.9334 29.8191 14.1631 29.1568 14.2215 28.5076ZM31.7006 29.8156C31.6469 29.9442 31.5112 30.3618 31.4049 30.3975C31.3308 30.4225 31.1007 30.3499 31.007 30.3518C30.8167 30.3559 30.6472 30.3918 30.4556 30.3704C30.4134 30.3657 30.3713 30.3598 30.329 30.3547C30.3076 30.3378 30.2836 30.3228 30.2539 30.3119C29.8285 30.1567 29.3846 30.1843 28.9471 30.0922C28.3721 29.971 27.8117 29.7983 27.2316 29.6963C26.095 29.4964 24.9585 29.2966 23.8219 29.0967C23.3055 29.0059 22.7893 28.915 22.273 28.8243C21.6674 28.7177 21.0439 28.558 20.4298 28.5205C19.9067 28.4886 19.4165 28.4684 18.8965 28.3709C18.3089 28.2606 17.7225 28.1468 17.1337 28.0431C15.9948 27.8428 14.8489 27.6654 13.7154 27.4376C13.2102 27.336 12.7195 27.2294 12.202 27.2205C11.6533 27.211 11.2053 27.0184 10.6731 26.9089C10.1409 26.7993 9.59724 26.7523 9.06455 26.6434C8.50629 26.5295 7.99625 26.307 7.42689 26.2114C6.98382 26.1371 6.51976 26.0915 6.09464 25.943C5.58226 25.764 5.09668 25.5269 4.5875 25.3442C4.43624 25.2899 4.16924 25.2576 4.06372 25.1325C3.96771 25.0188 3.93485 24.7538 3.91317 24.6064C3.87112 24.3209 3.93724 24.0366 3.95314 23.7517C3.96858 23.4716 3.96211 23.1933 3.99219 22.9137C4.02612 22.5975 4.07557 22.2824 4.13201 21.9681C4.87172 22.1414 5.65428 22.181 6.39641 22.333C6.82604 22.421 7.20793 22.5741 7.62593 22.6906C8.10236 22.8233 8.61454 22.8743 9.1013 22.9626C10.115 23.1461 11.1281 23.3329 12.1425 23.5121C13.0464 23.6718 13.9773 23.943 14.8943 23.9922C15.8584 24.044 16.7654 24.2668 17.717 24.4055C18.1598 24.4701 18.596 24.4546 19.0403 24.483C19.5299 24.5144 20.0141 24.6106 20.4935 24.7103C21.4556 24.9106 22.4213 25.0821 23.3891 25.2529C23.8469 25.3337 24.3053 25.4116 24.7624 25.4959C25.2381 25.5834 25.6884 25.7514 26.1573 25.865C26.6462 25.9833 27.1481 26.034 27.6415 26.1284C28.2036 26.2359 28.7554 26.3885 29.3122 26.5193C30.2898 26.7489 31.2927 26.917 32.2877 27.0728C32.2647 27.2024 32.2417 27.3321 32.2186 27.4618C32.0782 28.2536 32.0128 29.0677 31.7006 29.8156ZM34.7923 16.2546C34.6063 17.0127 34.4771 17.8008 34.2505 18.5462C34.0335 19.2598 33.7829 19.9339 33.6779 20.6765C33.6259 21.044 33.5728 21.3759 33.4252 21.7155C33.2689 22.0753 33.2699 22.4357 33.1742 22.8083C33.0968 23.1101 32.9719 23.3988 32.8963 23.7016C32.8047 24.0687 32.7546 24.4481 32.6881 24.8204C32.5868 25.3867 32.4866 25.9532 32.3862 26.5197C31.5217 26.3613 30.6504 26.2357 29.7906 26.0546C28.8409 25.8545 27.9119 25.6031 26.9522 25.4496C26.0125 25.2993 25.1113 24.9928 24.1724 24.8273C23.2183 24.6591 22.2588 24.5098 21.3094 24.3171C20.4192 24.1365 19.5488 23.9369 18.6364 23.9246C17.6463 23.9112 16.7059 23.5994 15.7278 23.4899C15.2689 23.4385 14.8119 23.4547 14.3555 23.3729C13.877 23.2871 13.4035 23.1775 12.9246 23.0931C11.9423 22.9202 10.9596 22.75 9.97661 22.5813C9.42769 22.4871 8.87917 22.3892 8.32951 22.3C7.81708 22.2169 7.35029 22.0086 6.84047 21.9321C5.95726 21.7995 5.07888 21.6914 4.1894 21.6581C4.31331 21.018 4.45979 20.3802 4.57101 19.7415L5.78846 12.7503C5.99245 11.5786 6.19958 10.4076 6.40562 9.23618C6.49707 8.7161 6.58544 8.19548 6.67431 7.67494C6.7711 7.10725 6.96669 6.56923 7.08407 6.00683C7.18345 5.53035 7.33659 5.06817 7.45978 4.59735C7.57573 4.15356 7.70382 3.67941 7.88201 3.2584C7.93694 3.12865 8.04146 2.89006 8.00549 2.73845C8.00559 2.73751 8.00575 2.73659 8.00581 2.73558C8.09207 2.7553 8.22558 2.76221 8.26369 2.76709C8.73411 2.8263 9.25555 2.87224 9.72951 2.85059C10.0166 2.8375 10.29 2.84838 10.577 2.85983C10.9199 2.87339 11.2431 2.94491 11.5828 2.97339C12.1616 3.02195 12.7494 3.00135 13.3313 3.04657C14.5645 3.14235 15.7688 3.28585 16.9875 3.51572C18.2173 3.74766 19.4691 3.82408 20.7045 4.03094C20.8669 4.05811 21.0297 4.08492 21.1927 4.1118C21.377 4.15281 21.563 4.18955 21.7505 4.22349C22.0987 4.28641 22.4056 4.40812 22.7404 4.51614C23.0759 4.62449 23.3861 4.61756 23.733 4.61793C23.7488 4.61793 23.765 4.619 23.7808 4.61944C23.9 4.65036 24.0191 4.68189 24.1372 4.71618C24.2154 4.73873 24.2763 4.71945 24.3179 4.67874C24.4705 4.70475 24.6222 4.73442 24.7709 4.75862C25.1475 4.81982 25.4431 4.96066 25.7977 5.07737C26.0886 5.17317 26.3941 5.15925 26.68 5.2737C27.0207 5.41006 27.3335 5.50703 27.6984 5.56167C28.4912 5.68033 29.2756 5.84453 30.0637 5.9904C30.4242 6.05709 30.7727 6.05882 31.1363 6.08244C31.4802 6.1048 31.8181 6.20184 32.1547 6.27026C32.5281 6.34607 32.9011 6.43246 33.279 6.48374C33.6615 6.53563 34.0776 6.47661 34.4483 6.57879C34.7354 6.65798 35.0196 6.78208 35.3055 6.87102C35.663 6.98215 35.7201 7.17869 35.7806 7.53757C35.8297 7.82935 35.9231 8.12253 35.9276 8.41956C35.9326 8.74696 35.8991 9.08731 35.8848 9.41557C35.853 10.1523 35.6282 10.8869 35.5431 11.6207C35.3636 13.1715 35.1649 14.7354 34.7923 16.2546Z" fill="black"/>
<path d="M34.329 9.39844C34.4588 8.9854 34.9861 8.53671 34.5817 8.08736C34.3138 7.78969 33.8334 7.84675 33.4735 7.84568C33.1813 7.84467 32.915 7.75481 32.6298 7.69813C32.1905 7.61082 31.7468 7.54477 31.3078 7.45455C30.9634 7.38366 30.6198 7.27663 30.2641 7.30384C29.8874 7.33267 29.5644 7.24595 29.1892 7.23215C27.6068 7.17399 26.0372 6.74155 24.4685 6.52212C24.0915 6.46929 23.7124 6.41343 23.3453 6.31049C22.9603 6.20249 22.6298 6.04445 22.2247 6.01936C21.4426 5.97093 20.6888 5.85986 19.9177 5.71418C19.5217 5.63928 19.1561 5.44122 18.752 5.42231C18.2946 5.40094 17.8714 5.38482 17.4171 5.30391C16.527 5.14531 15.6738 4.88443 14.7815 4.72736C14.3091 4.64412 13.8576 4.63153 13.3821 4.59439C12.9221 4.55841 12.4626 4.4466 12.0083 4.36776C11.025 4.19717 10.044 4.09623 9.05695 3.96521C9.05485 3.96491 9.05326 3.96564 9.0513 3.96555C9.04264 3.93407 9.03346 3.90262 9.02256 3.87125C8.99207 3.78356 8.8553 3.81491 8.86438 3.9074C8.89669 4.23669 8.80675 4.54412 8.73886 4.86292C8.6652 5.20869 8.60477 5.55642 8.53828 5.90365C8.47709 6.22223 8.35041 6.51233 8.25479 6.82034C8.16194 7.11945 8.1559 7.39197 8.15937 7.70051C8.16272 7.99932 8.08436 8.28861 8.0695 8.58706C8.05292 8.91897 8.0417 9.24212 7.98553 9.57073C7.87156 10.2369 7.71016 10.896 7.58925 11.5615C7.34335 12.9154 7.08287 14.253 6.96482 15.6237C6.90787 16.285 6.75414 16.9452 6.63988 17.5986C6.52233 18.2706 6.40235 18.9421 6.27582 19.6121C6.06424 20.7329 7.50798 20.7098 8.26263 20.843C8.90641 20.9567 9.57246 21.1468 10.2237 21.1956C10.5395 21.2192 10.8566 21.2059 11.1718 21.242C11.528 21.2827 11.8798 21.366 12.233 21.4263C12.873 21.5355 13.5266 21.5085 14.1611 21.6289C14.8116 21.7523 15.4506 21.7643 16.105 21.8458C17.4553 22.014 18.7857 22.3135 20.1211 22.569C23.2878 23.1747 26.4713 23.7041 29.6464 24.264C29.7838 24.2882 29.8804 24.2169 29.9259 24.1191C30.1929 24.1967 30.4344 24.3736 30.7206 24.3777C31.3741 24.3868 31.4655 23.7774 31.6519 23.3004C31.922 22.61 32.107 21.8572 32.2709 21.1314C32.4526 20.3261 32.5762 19.5061 32.7167 18.6927C32.8631 17.8451 32.9873 16.9897 33.1553 16.1461C33.2278 15.7814 33.3895 15.4438 33.4646 15.0792C33.5374 14.725 33.6104 14.3711 33.6864 14.0174C33.8576 13.2199 33.8117 12.4635 33.8649 11.6575C33.9173 10.8664 34.0927 10.1504 34.329 9.39844ZM12.4189 4.83529C12.42 4.83719 12.4205 4.83906 12.4216 4.84097C12.507 4.98874 12.3546 5.30146 12.2836 5.43287C12.2305 5.53107 12.1813 5.63435 12.1577 5.74037C11.8912 5.72136 11.624 5.71392 11.358 5.68706C11.3939 5.58913 11.3958 5.47878 11.4108 5.36109C11.4402 5.1302 11.4612 4.90015 11.4766 4.66807C11.4771 4.66243 11.4755 4.65796 11.4751 4.65281C11.7888 4.71073 12.1032 4.77627 12.4189 4.83529ZM11.3259 4.62474C11.3234 4.62987 11.3202 4.63414 11.3184 4.64016C11.2535 4.86354 11.1945 5.08693 11.1432 5.31391C11.1157 5.43548 11.0779 5.54457 11.0824 5.65439C10.7123 5.60792 10.3353 5.55834 9.98104 5.4449C9.98191 5.4403 9.98299 5.43668 9.98385 5.43182C9.9956 5.36624 10.0015 5.30788 10.0352 5.24909C10.0532 5.21767 10.0834 5.19609 10.1015 5.16444C10.1499 5.08 10.145 4.98368 10.1717 4.89256C10.1998 4.7968 10.2491 4.71847 10.2678 4.6184C10.2896 4.50261 10.1226 4.47888 10.0912 4.58726C10.0621 4.68766 9.9941 4.77804 9.95546 4.8755C9.91216 4.98502 9.87929 5.03755 9.81957 5.12285C9.77186 5.19116 9.74585 5.27244 9.73797 5.35565C9.63811 5.31513 9.55163 5.28192 9.43386 5.27823C9.37578 5.27649 9.0423 5.35839 9.03457 5.24241C9.03349 5.22661 9.02817 5.21431 9.0212 5.20382C9.09115 4.84451 9.14752 4.48236 9.08712 4.12634C9.83522 4.29264 10.5712 4.48481 11.3259 4.62474ZM33.9967 9.0495C33.8611 9.36424 33.7574 9.72433 33.6688 10.0562C33.4827 10.7521 33.4161 11.4973 33.4063 12.2161C33.3961 12.9568 33.3112 13.6213 33.1462 14.3439C32.9863 15.0435 32.7551 15.722 32.6301 16.4277C32.4738 17.3097 32.3116 18.1906 32.153 19.0721C31.9998 19.9229 31.9179 20.802 31.7195 21.6428C31.6315 22.0161 31.5234 22.4474 31.3969 22.8097C31.3345 22.9885 31.2209 23.1428 31.1553 23.3214C31.1091 23.4472 31.0899 23.592 31.0215 23.7089C30.7388 24.1927 30.2493 23.7646 29.8717 23.6991C29.7041 23.67 29.5322 23.6632 29.3597 23.664C26.7741 23.2084 24.1879 22.7564 21.6017 22.3042C20.277 22.0725 18.9604 21.798 17.6361 21.5651C16.9894 21.4513 16.3338 21.3314 15.6774 21.2967C15.3871 21.2814 15.0963 21.279 14.8083 21.2355C14.4806 21.1859 14.1602 21.0941 13.8292 21.0656C13.1912 21.0107 12.5744 20.9752 11.9418 20.8589C11.3056 20.7422 10.667 20.7675 10.0344 20.6645C9.39615 20.5605 8.76065 20.4186 8.1231 20.3062C7.86164 20.2601 7.60008 20.2192 7.33806 20.1777C7.02556 20.128 6.73115 20.0817 6.774 19.6997C6.91838 18.4108 7.31103 17.1461 7.45626 15.8549C7.52569 15.2376 7.56014 14.633 7.66881 14.0192C7.78992 13.3345 7.90481 12.6488 8.02223 11.9634C8.14637 11.2389 8.29874 10.5209 8.42784 9.79767C8.48669 9.46826 8.50976 9.1434 8.50055 8.80909C8.49189 8.48999 8.54043 8.18016 8.5447 7.86296C8.55057 7.42228 8.55145 7.08398 8.69565 6.65311C8.79859 6.34537 8.86829 6.04942 8.92129 5.72869C8.93634 5.63754 8.95391 5.54582 8.97209 5.4539C8.9987 5.46709 9.03102 5.47673 9.07141 5.48271C9.21427 5.5039 9.35026 5.43059 9.49857 5.45687C9.58627 5.47239 9.67066 5.51025 9.7543 5.54987C9.76138 5.5767 9.76956 5.60302 9.78046 5.62791C9.79909 5.67055 9.85554 5.68443 9.88756 5.6468C9.89549 5.63747 9.90112 5.62888 9.90776 5.62002C9.928 5.62835 9.94829 5.63599 9.96862 5.64275C10.669 5.87471 11.4185 5.85867 12.1477 5.9262C12.1541 5.97676 12.1684 6.02758 12.1939 6.07853C12.2327 6.15613 12.3207 6.17502 12.3839 6.11203C12.4279 6.06795 12.4566 6.01755 12.4784 5.96414C12.4998 5.96709 12.5213 5.96973 12.5426 5.97292C13.3946 6.10195 14.253 6.25832 15.0998 6.41723C15.4553 6.48397 15.7651 6.67568 16.1268 6.74739C16.6211 6.84533 17.1209 6.91169 17.6181 6.99307C18.4034 7.12147 19.1233 7.45834 19.9232 7.46134C20.3357 7.46295 20.7149 7.58933 21.1244 7.60601C21.5605 7.62375 21.9934 7.62724 22.4168 7.74505C22.8083 7.85392 23.1705 7.98728 23.5735 8.05632C24.0716 8.14161 24.5685 8.23398 25.0657 8.32457C25.4745 8.399 25.8865 8.44729 26.2952 8.5196C26.7072 8.5925 27.0933 8.77024 27.5003 8.86885C28.4807 9.10639 29.4918 9.24888 30.4836 9.43189C30.9661 9.52091 31.4307 9.56525 31.9191 9.59419C32.4623 9.62632 33.0034 9.75219 33.539 9.8453C33.7105 9.87516 33.7578 9.60946 33.586 9.57885C33.1649 9.50377 32.744 9.41629 32.3208 9.35499C31.9026 9.2944 31.4787 9.31638 31.0608 9.25042C30.1773 9.11108 29.2961 8.94916 28.4135 8.80318C28.0293 8.73963 27.6454 8.67841 27.2705 8.5708C26.8529 8.45103 26.4862 8.31377 26.0532 8.2567C25.1592 8.13893 24.2592 7.9815 23.3743 7.80763C23.013 7.73663 22.6757 7.58843 22.3179 7.50561C21.9636 7.42378 21.5991 7.42074 21.2375 7.40936C20.8747 7.39799 20.5361 7.28022 20.177 7.2631C19.9555 7.2526 19.7334 7.28629 19.512 7.26254C19.2484 7.23428 18.9979 7.14334 18.7478 7.06078C17.9613 6.80114 17.1253 6.74899 16.3146 6.59613C15.9575 6.52886 15.6657 6.37834 15.3262 6.27488C14.9341 6.15536 14.4889 6.13086 14.0845 6.05923C13.5814 5.97015 13.0806 5.86267 12.5758 5.78464C12.5629 5.78262 12.5501 5.78131 12.5373 5.77949C12.5475 5.74494 12.5586 5.71027 12.5726 5.67651C12.6197 5.56334 12.6729 5.46559 12.6959 5.34273C12.7216 5.20617 12.7408 5.03497 12.7072 4.88612C13.0225 4.93892 13.3389 4.98018 13.657 4.99267C14.4558 5.02398 15.3329 5.16424 16.0907 5.422C16.753 5.64729 17.5197 5.82596 18.2203 5.85272C18.5778 5.86632 18.8434 5.86092 19.1853 5.98575C19.5138 6.10566 19.8448 6.18047 20.1873 6.2493C20.5422 6.32058 20.8941 6.4115 21.2516 6.46845C21.6098 6.52544 21.97 6.49985 22.328 6.54533C22.6708 6.58891 22.9895 6.75178 23.3231 6.83973C23.6925 6.93717 24.072 6.99115 24.4497 7.0441C25.204 7.14987 25.9523 7.28588 26.7023 7.41781C27.3951 7.53965 28.1109 7.72952 28.8157 7.74438C29.1431 7.75134 29.4322 7.79413 29.7525 7.84381C30.1034 7.89833 30.4356 7.79869 30.7925 7.86937C31.5475 8.01861 32.298 8.1934 33.0658 8.26082C33.3341 8.28433 34.0978 8.14832 34.2691 8.38002C34.4169 8.58034 34.0722 8.8742 33.9967 9.0495Z" fill="black"/>
<path d="M19.4971 25.8115C19.3346 25.198 18.2404 24.3222 17.6982 24.9737C17.6938 24.979 17.6905 24.9846 17.6868 24.9901C17.554 24.9319 17.3871 24.9278 17.2661 24.9796C16.8931 25.1389 16.758 25.693 16.6842 26.0447C16.6215 26.3435 16.5332 26.6844 16.7516 26.9407C16.8497 27.0558 16.9832 27.1142 17.1117 27.1873C17.332 27.3126 17.5275 27.4581 17.7269 27.6147C17.8457 27.7079 17.983 27.6823 18.0881 27.585C18.2705 27.4161 18.5778 27.4579 18.7903 27.3412C18.9615 27.2471 19.0624 27.0887 19.1629 26.9248C19.2968 26.7067 19.4066 26.4383 19.4865 26.1989C19.5328 26.0603 19.536 25.9583 19.4971 25.8115ZM19.1079 26.1953C19.0565 26.3396 19.073 26.5267 18.9951 26.6573C18.8801 26.85 18.6761 26.9199 18.4686 26.961C18.2795 26.9986 18.0947 27.0273 17.9248 27.1041C17.7579 26.9612 17.5784 26.8362 17.3823 26.7328C17.3097 26.6946 17.1703 26.6598 17.1307 26.5794C17.0815 26.4793 17.1697 26.2246 17.1875 26.1335C17.2217 25.9581 17.2586 25.7837 17.3433 25.6246C17.4463 25.4307 17.5107 25.4209 17.6928 25.3641C17.7357 25.3507 17.818 25.3301 17.8627 25.2885C17.8786 25.2869 17.8947 25.284 17.9111 25.278C18.1184 25.2021 18.612 25.4121 18.787 25.526C18.8955 25.5965 18.9846 25.7254 19.0603 25.8286C19.1834 25.9961 19.1721 26.0156 19.1079 26.1953Z" fill="black"/>
<path d="M10.1957 17.5484C10.1041 17.4916 9.9991 17.4155 9.88052 17.3202C9.76079 17.2314 9.65168 17.1207 9.55318 16.9883C9.45468 16.8558 9.3865 16.705 9.34863 16.5359C9.31655 16.3339 9.30358 16.1387 9.30974 15.9502C9.32245 15.7629 9.35351 15.5484 9.40291 15.3066C9.46311 14.9652 9.53818 14.6739 9.62813 14.4325C9.7258 14.1857 9.85031 13.9402 10.0017 13.6962C10.0183 13.6788 10.0511 13.627 10.1001 13.5409C10.1569 13.4494 10.2181 13.3518 10.2837 13.2483C10.3559 13.146 10.4104 13.0676 10.447 13.0131C10.5192 12.9108 10.6241 12.7769 10.7615 12.6116C10.9067 12.4409 11.0573 12.2779 11.2133 12.1226C11.4535 11.8739 11.6549 11.6725 11.8174 11.5184C11.9811 11.3577 12.1331 11.2254 12.2733 11.1215C12.42 11.0188 12.576 10.921 12.7413 10.8283C12.9131 10.7368 13.124 10.6352 13.3738 10.5235C13.5368 10.4439 13.7322 10.4107 13.96 10.4238C14.1945 10.4381 14.4113 10.5135 14.6106 10.6502C14.8111 10.7803 14.9407 10.986 14.9994 11.2671C15.0473 11.4177 15.0495 11.5975 15.0058 11.8064C14.9634 12.0088 14.8852 12.2218 14.7713 12.4454C14.6586 12.6624 14.5285 12.8629 14.381 13.0467C14.2335 13.2306 14.0798 13.3727 13.9199 13.4732C13.8207 13.5369 13.7035 13.5298 13.5683 13.4518C13.4397 13.3749 13.3369 13.2858 13.2601 13.1842C13.2207 13.0622 13.1994 12.9907 13.1963 12.9699C13.1998 12.9502 13.2152 12.9394 13.2427 12.9374C13.2902 12.8984 13.3566 12.8289 13.4419 12.7289C13.5272 12.6288 13.6137 12.5222 13.7014 12.409C13.7902 12.2893 13.8547 12.1924 13.8948 12.1182C13.996 11.8517 14.0639 11.6776 14.0987 11.5957C14.1346 11.5072 14.1282 11.4283 14.0795 11.3588C14.0579 11.3279 14.0202 11.3111 13.9665 11.3084C13.9194 11.3068 13.8348 11.3258 13.7128 11.3652C13.5502 11.4042 13.346 11.507 13.1 11.6734C12.8617 11.8345 12.6165 12.035 12.3644 12.2748C12.0404 12.5765 11.766 12.8463 11.5413 13.0842C11.3166 13.3221 11.1334 13.5742 10.9917 13.8403C10.9739 13.8642 10.9423 13.9094 10.8967 13.9758C10.8577 14.0434 10.8382 14.0772 10.8382 14.0772C10.8401 14.1046 10.8187 14.1685 10.7739 14.269C10.7303 14.3628 10.6857 14.443 10.6402 14.5094C10.5147 14.7987 10.4205 15.0833 10.3576 15.3633C10.2958 15.6367 10.2694 15.8825 10.2783 16.1007C10.295 16.3135 10.3438 16.4778 10.4249 16.5937C10.4999 16.6678 10.6047 16.7066 10.7395 16.7101C10.8743 16.7135 11.0334 16.6942 11.2168 16.6521C11.4003 16.61 11.598 16.5636 11.81 16.513C11.9792 16.4751 12.1363 16.4283 12.2815 16.3727C12.4267 16.3171 12.5374 16.2655 12.6134 16.218C12.6729 16.1879 12.7455 16.16 12.8312 16.1345C12.9247 16.1036 13.001 16.0934 13.06 16.1038C13.1577 16.0872 13.2221 16.1256 13.253 16.2191C13.2839 16.3125 13.2877 16.4249 13.2646 16.5562C13.2484 16.6481 13.1631 16.7482 13.0086 16.8563C12.8541 16.9645 12.69 17.0506 12.5162 17.1147C12.4545 17.158 12.3736 17.1945 12.2735 17.2243C12.1812 17.2486 12.0862 17.2691 11.9885 17.2857C11.8321 17.3664 11.6435 17.4381 11.4226 17.5007C11.2017 17.5633 10.9816 17.6023 10.7622 17.6178C10.5494 17.6344 10.3606 17.6113 10.1957 17.5484ZM14.5117 17.9946C14.3001 17.7745 14.1353 17.5762 14.0175 17.3998C13.9074 17.2179 13.8586 17.0536 13.8709 16.9068C13.8786 16.7863 13.907 16.6255 13.956 16.4243C14.0116 16.2242 14.0699 16.028 14.1308 15.8357C14.1918 15.6434 14.2409 15.4997 14.2779 15.4047C14.3165 15.3776 14.3372 15.3373 14.3399 15.2836C14.3503 15.2245 14.3555 15.195 14.3555 15.195C14.3547 15.161 14.3928 15.0797 14.4696 14.9511C14.5476 14.8159 14.6292 14.6407 14.7146 14.4256C14.9153 14.0549 15.098 13.7486 15.2624 13.5068C15.4346 13.2596 15.5966 13.0512 15.7484 12.8817C15.9001 12.7121 16.049 12.559 16.1949 12.4223C16.5127 12.194 16.8043 12.0186 17.0696 11.8961C17.3414 11.7748 17.5872 11.6862 17.807 11.6301C17.9522 11.5745 18.0846 11.5336 18.2043 11.5073C18.3241 11.481 18.4171 11.4906 18.4836 11.5362C18.8373 11.6798 19.1208 11.8957 19.334 12.1837C19.5473 12.4718 19.656 12.8531 19.6603 13.3278C19.6554 13.6248 19.6353 13.892 19.6002 14.1295C19.5728 14.3616 19.5159 14.5885 19.4294 14.8102C19.3441 15.0253 19.2153 15.2565 19.0431 15.5036C18.8775 15.752 18.6545 16.0376 18.3742 16.3605C18.0112 16.8448 17.6371 17.2392 17.2517 17.5436C16.874 17.8425 16.5081 18.0556 16.154 18.1827C15.8065 18.3109 15.4871 18.3562 15.1959 18.3183C14.9101 18.2883 14.6821 18.1804 14.5117 17.9946ZM15.4142 17.4836C15.5687 17.4905 15.6953 17.4824 15.7942 17.4592C15.8996 17.4372 16.0147 17.3796 16.1394 17.2865C16.2641 17.1934 16.4408 17.0553 16.6694 16.8722C16.8748 16.7054 17.0455 16.5629 17.1814 16.4447C17.3239 16.3276 17.4473 16.2038 17.5515 16.0733C17.6624 15.9439 17.7713 15.7871 17.8782 15.6029C17.9929 15.4132 18.1239 15.1689 18.2714 14.87C18.3587 14.6823 18.4203 14.5442 18.4562 14.4558C18.4998 14.362 18.5307 14.2828 18.5488 14.2183C18.567 14.1538 18.5826 14.0652 18.5957 13.9524C18.6165 13.8342 18.6478 13.6569 18.6895 13.4206C18.7026 13.3078 18.7016 13.179 18.6865 13.0342C18.6726 12.8828 18.6446 12.773 18.6025 12.7046C18.5496 12.6208 18.4621 12.5411 18.34 12.4654C18.218 12.3897 18.079 12.372 17.9229 12.4122C17.8384 12.4311 17.7277 12.4827 17.591 12.5669C17.4555 12.6445 17.3132 12.7413 17.1641 12.8572C17.0151 12.973 16.8726 13.0901 16.7367 13.2083C16.6008 13.3265 16.4901 13.4356 16.4048 13.5356C16.3195 13.6356 16.2727 13.7086 16.2646 13.7546C16.2646 13.7546 16.2585 13.7704 16.2461 13.8021C16.2403 13.8349 16.2214 13.8654 16.1893 13.8936C16.0878 13.9705 15.9725 14.1059 15.8436 14.2998C15.7146 14.4936 15.587 14.7182 15.4608 14.9735C15.3345 15.2288 15.2214 15.4864 15.1214 15.7463C15.0214 16.0063 14.9458 16.2434 14.8944 16.4577C14.8759 16.5628 14.8603 16.6514 14.8475 16.7236C14.8348 16.7958 14.8298 16.8627 14.8325 16.9241C14.8429 16.9801 14.8621 17.0444 14.8899 17.117C14.9177 17.1896 14.9849 17.2691 15.0915 17.3556C15.2047 17.4432 15.3122 17.4859 15.4142 17.4836ZM19.8176 19.2247C19.5484 19.1772 19.3103 19.0878 19.1033 18.9566C18.8951 18.8318 18.7914 18.6139 18.7921 18.3026C18.8276 18.1396 18.8521 18.039 18.8656 18.0008C18.8869 17.9571 18.9172 17.9388 18.9566 17.9457C18.9828 17.9504 19.0031 17.9505 19.0174 17.9463C19.0394 17.9366 19.0545 17.9088 19.0626 17.8629C19.0888 17.7524 19.1284 17.624 19.1813 17.4776C19.2419 17.3258 19.3035 17.1878 19.366 17.0634C19.4363 16.9336 19.4957 16.846 19.5444 16.8004C19.6069 16.676 19.6946 16.5053 19.8073 16.2883C19.9201 16.0712 20.0378 15.8449 20.1606 15.6093C20.2911 15.3683 20.4077 15.1485 20.5104 14.95C20.6196 14.7527 20.6982 14.6142 20.7461 14.5346C20.794 14.4551 20.8673 14.3462 20.9662 14.2079C21.0662 14.0631 21.1386 13.9404 21.1834 13.84C21.2525 13.7168 21.3266 13.5843 21.4057 13.4426C21.4861 13.2943 21.5567 13.1815 21.6177 13.1043L21.8372 12.8383L21.6113 12.565C21.5356 12.4568 21.5058 12.3568 21.522 12.2649C21.5405 12.1599 21.6185 12.0822 21.756 12.032C21.9001 11.9829 22.0597 11.9603 22.2351 11.9642C22.303 11.9626 22.3797 11.9693 22.4651 11.9844C22.557 12.0006 22.6423 12.0157 22.7211 12.0295C22.9115 12.0631 23.1007 12.1033 23.2888 12.15C23.4769 12.1967 23.6316 12.2409 23.7528 12.2825C23.8227 12.3084 23.9095 12.3542 24.013 12.4198C24.1165 12.4854 24.2155 12.5571 24.3102 12.6347C24.4048 12.7123 24.4705 12.7814 24.5072 12.842C24.5072 12.842 24.518 12.8575 24.5396 12.8884C24.5624 12.9127 24.5869 12.9272 24.6132 12.9318C24.6491 12.9584 24.7047 13.0461 24.78 13.1948C24.8619 13.3446 24.9377 13.5103 25.0072 13.6918C25.0779 13.8667 25.1115 14.0216 25.1081 14.1563C25.1104 14.2583 25.1044 14.3689 25.0901 14.4883C25.0836 14.6022 25.0722 14.7051 25.056 14.797C25.0217 14.9535 24.9852 15.1027 24.9466 15.2448C24.9145 15.3881 24.8704 15.5428 24.814 15.7089C24.7677 15.8564 24.702 16.0174 24.6171 16.192C24.5399 16.3612 24.4567 16.5259 24.3675 16.6862C24.286 16.8411 24.2131 16.967 24.1486 17.0639C24.0907 17.162 24.0551 17.2099 24.042 17.2076C24.0026 17.2006 23.9779 17.2064 23.9679 17.225C23.9578 17.2435 23.9505 17.2659 23.9459 17.2922C23.9277 17.3567 23.8665 17.4542 23.7623 17.5847C23.6592 17.7087 23.5341 17.8424 23.387 17.9857C23.241 18.1224 23.0902 18.2481 22.9346 18.3628C22.7855 18.4787 22.6527 18.5602 22.5361 18.6073C22.2855 18.8001 21.9985 18.9492 21.6753 19.0547C21.3509 19.1667 21.0242 19.2343 20.6952 19.2576C20.3727 19.2819 20.0802 19.271 19.8176 19.2247ZM20.2392 18.2734C20.3048 18.285 20.4104 18.3002 20.556 18.3191C20.7094 18.3326 20.8349 18.3311 20.9326 18.3144C21.0971 18.3028 21.3025 18.2511 21.5489 18.1591C21.7964 18.0606 22.0283 17.9356 22.2446 17.7842C22.4851 17.61 22.7072 17.4258 22.9107 17.2315C23.1153 17.0306 23.3317 16.7439 23.5599 16.3712C23.7179 16.1282 23.8435 15.8762 23.9369 15.6151C24.0369 15.3552 24.106 15.1169 24.1442 14.9003C24.2125 14.5129 24.1953 14.1883 24.0925 13.9265C23.9909 13.6581 23.8328 13.461 23.618 13.3351C23.5319 13.2861 23.4407 13.2463 23.3446 13.2158C23.2496 13.1788 23.1561 13.1521 23.0642 13.1359C22.9985 13.1244 22.929 13.1155 22.8556 13.1093C22.7888 13.1043 22.7444 13.1066 22.7224 13.1163C22.6699 13.107 22.6015 13.1491 22.5174 13.2426C22.4398 13.3372 22.3608 13.4587 22.2805 13.607C22.2002 13.7553 22.1237 13.9009 22.0512 14.0438C21.9651 14.2249 21.8886 14.3705 21.8218 14.4806C21.7562 14.5841 21.69 14.6909 21.6232 14.801C21.5564 14.9111 21.471 15.0686 21.3672 15.2737C21.244 15.4348 21.1334 15.6014 21.0353 15.7737C20.945 15.9405 20.868 16.0894 20.8043 16.2204C20.7417 16.3447 20.696 16.4314 20.667 16.4805C20.6137 16.5523 20.5502 16.663 20.4765 16.8124C20.4104 16.9565 20.3421 17.1137 20.2715 17.284C20.2074 17.4555 20.1489 17.6144 20.096 17.7608C20.0497 17.9083 20.0196 18.0215 20.0057 18.1002C19.9964 18.1528 20.0163 18.1935 20.0654 18.2225C20.1156 18.2449 20.1735 18.2618 20.2392 18.2734ZM26.3946 20.2422C26.132 20.1959 25.8986 20.1378 25.6942 20.0679C25.4954 20.0058 25.3221 19.894 25.1746 19.7326C24.9977 19.5457 24.8914 19.3036 24.8559 19.0062C24.828 18.7035 24.9176 18.33 25.1245 17.8859C25.1863 17.7275 25.2479 17.5894 25.3092 17.4716C25.3772 17.355 25.4276 17.2996 25.4604 17.3054C25.4728 17.2737 25.4907 17.2295 25.5143 17.1727C25.539 17.1094 25.5654 17.0362 25.5936 16.9531C25.6473 16.8408 25.6853 16.7595 25.7077 16.7093C25.7312 16.6525 25.7662 16.6079 25.8125 16.5754C25.8345 16.5658 25.865 16.5271 25.904 16.4596C25.9442 16.3854 25.9687 16.3423 25.9776 16.3304C25.9776 16.3304 25.9849 16.308 25.9996 16.2632C26.0154 16.2118 26.0422 16.1556 26.0801 16.0946C26.2075 15.9478 26.2758 15.8482 26.2851 15.7956C26.3029 15.7717 26.3361 15.7369 26.3847 15.6914C26.4399 15.6469 26.4882 15.5844 26.5295 15.5036C26.7878 15.1904 26.999 14.9332 27.1631 14.732C27.3284 14.5242 27.4352 14.3602 27.4834 14.2401C27.529 14.1737 27.5736 14.0935 27.6172 13.9997C27.6686 13.9004 27.7218 13.8286 27.7771 13.7842C27.7697 13.749 27.8122 13.7193 27.9045 13.6949C28.0033 13.6717 28.1291 13.6499 28.2816 13.6294C28.4341 13.6089 28.5954 13.5967 28.7653 13.5929C28.9352 13.589 29.0897 13.5959 29.2287 13.6136C29.2727 13.5943 29.3616 13.5897 29.4952 13.5997C29.6354 13.6109 29.7941 13.6321 29.9714 13.6634C30.1486 13.6946 30.3116 13.7301 30.4603 13.7699C30.6047 13.7953 30.7162 13.8353 30.7946 13.8897C30.873 13.9442 30.9514 13.9986 31.0298 14.0531C31.0568 14.0917 31.0947 14.1457 31.1433 14.2153C31.192 14.2848 31.2171 14.3535 31.2187 14.4215C31.2268 14.4906 31.1737 14.5422 31.0594 14.5762C31.0362 14.5924 30.925 14.5897 30.7257 14.5681C30.5264 14.5465 30.3185 14.5166 30.1018 14.4784C29.8589 14.4356 29.6453 14.4182 29.4611 14.4263C29.2769 14.4345 29.1487 14.4322 29.0765 14.4195C28.9799 14.4295 28.8687 14.4268 28.7428 14.4114C28.6169 14.396 28.554 14.3882 28.554 14.3882C28.5408 14.3859 28.5011 14.4195 28.4346 14.4891C28.3694 14.552 28.2947 14.6302 28.2105 14.7237C28.134 14.8118 28.062 14.8938 27.9945 14.9699C27.9334 15.0472 27.9012 15.0956 27.8977 15.1153C27.8862 15.181 27.8472 15.2486 27.7807 15.3181C27.7143 15.3876 27.6358 15.4685 27.545 15.5609C27.4643 15.6346 27.4054 15.719 27.3684 15.814C27.3325 15.9025 27.3417 15.965 27.3962 16.0017C27.5047 16.0005 27.6526 16.0063 27.8399 16.019C28.0338 16.0329 28.2238 16.0495 28.41 16.0688C28.5973 16.0815 28.7402 16.0965 28.8386 16.1139C28.956 16.1007 29.0491 16.1104 29.1179 16.1428C29.1866 16.1752 29.2356 16.2042 29.265 16.2297C29.3415 16.2567 29.3805 16.3042 29.382 16.3722C29.3902 16.4413 29.3786 16.507 29.3473 16.5691C29.316 16.6313 29.2757 16.6682 29.2263 16.6798C29.1799 16.7122 29.0733 16.7408 28.9065 16.7656C28.7397 16.7903 28.5433 16.8098 28.3174 16.8242C28.098 16.8396 27.876 16.8513 27.6512 16.859C27.4342 16.8614 27.2445 16.8618 27.0823 16.8603C26.9267 16.8599 26.8363 16.8541 26.8112 16.8429C26.7881 16.7441 26.7415 16.7392 26.6716 16.8285C26.6095 16.9123 26.5201 17.0928 26.4035 17.3701C26.3023 17.5215 26.2245 17.6364 26.1701 17.7148C26.1234 17.7878 26.0815 17.8718 26.0444 17.9668C26.0085 18.0553 25.9529 18.1978 25.8776 18.3944C25.8004 18.5635 25.7754 18.725 25.8024 18.8787C25.8372 19.027 25.9509 19.1689 26.1437 19.3044C26.2703 19.3538 26.4196 19.3903 26.5915 19.4138C26.7633 19.4373 26.9968 19.4379 27.2918 19.4154C27.4227 19.3641 27.5525 19.3193 27.6811 19.281C27.8108 19.2362 27.901 19.2047 27.9516 19.1865C27.9844 19.1923 28.036 19.1879 28.1063 19.1732C28.1843 19.1531 28.2364 19.1454 28.2627 19.15C28.3279 19.087 28.3999 19.0625 28.4787 19.0764C28.4919 19.0787 28.5228 19.1146 28.5714 19.1841C28.6267 19.2548 28.6757 19.3413 28.7186 19.4436C28.7615 19.546 28.7742 19.6464 28.7569 19.7449C28.7453 19.8105 28.6186 19.8762 28.3769 19.9419C28.1417 20.0087 27.8484 20.0788 27.497 20.1523C27.3201 20.1955 27.1757 20.2276 27.0637 20.2485C26.9583 20.2705 26.8584 20.28 26.7642 20.2769C26.6688 20.2804 26.5456 20.2688 26.3946 20.2422Z" fill="#F85F4C"/>
</g>
<defs>
<clipPath id="clip0_128_125">
<rect width="32" height="32" fill="white" transform="translate(6.51746 0.626724) rotate(10)"/>
</clipPath>
</defs>
</svg>
