<svg width="15" height="11" viewBox="0 0 15 11" fill="none" xmlns="http://www.w3.org/2000/svg">
<path d="M0.660889 1.49685L7.22339 9.93435C7.25749 9.97439 7.29989 10.0065 7.34764 10.0286C7.39539 10.0507 7.44736 10.0621 7.49995 10.0621C7.55255 10.0621 7.60452 10.0507 7.65227 10.0286C7.70002 10.0065 7.74241 9.97439 7.77651 9.93435L14.339 1.49685C14.3799 1.44517 14.4054 1.38298 14.4124 1.31745C14.4195 1.25192 14.4078 1.18573 14.3789 1.12653C14.3496 1.06754 14.3046 1.01786 14.2487 0.983079C14.1928 0.948299 14.1283 0.9298 14.0625 0.92966L0.937452 0.929661C0.871619 0.929801 0.807132 0.948301 0.751236 0.98308C0.695341 1.01786 0.650255 1.06754 0.621045 1.12654C0.592066 1.18573 0.580428 1.25192 0.587479 1.31745C0.594529 1.38298 0.61998 1.44517 0.660889 1.49685Z" fill="#14142B"/>
</svg>
