<svg width="58" height="86" viewBox="0 0 58 86" fill="none" xmlns="http://www.w3.org/2000/svg">
<path d="M21.8338 0.975541C29.4818 -0.0422952 37.3977 1.97957 43.808 6.47169C50.2183 10.9638 54.9281 18.0352 56.5502 25.9663C58.1722 33.8974 56.8803 42.6231 52.5604 49.5607C48.2076 56.5502 41.4345 61.5286 34.2503 65.1466C30.4353 67.0648 26.4559 68.6437 22.4213 70.0314C17.5927 71.6961 12.6678 73.0848 7.6803 74.1837C6.45144 74.4561 5.21667 74.7061 3.98388 74.946C2.89174 75.1535 2.13638 73.8842 2.89265 73.0238C8.25952 66.9242 14.2538 61.434 20.7519 56.6144C21.4999 56.0577 22.7661 57.0196 22.4027 57.9197C19.6028 64.8573 12.066 66.9129 6.69888 71.1605C5.21826 72.3321 3.91247 73.7063 2.99683 75.3746L2.3176 73.6879C8.80565 75.0537 15.1028 77.408 20.9419 80.6395C22.6137 81.566 24.2498 82.5689 25.8423 83.636C27.0497 84.446 25.9452 86.4225 24.7279 85.6104C19.298 81.9691 13.3804 79.146 7.1638 77.2729C5.37034 76.7328 3.56094 76.2734 1.73442 75.8903C1.00864 75.7377 0.725372 74.8077 1.0552 74.2036C4.55302 67.8423 12.0245 66.0864 17.0953 61.5294C18.4179 60.3422 19.5649 58.9669 20.2394 57.2859L21.8902 58.5912C15.5519 63.2919 9.72442 68.6902 4.4904 74.6398L3.39916 72.7175C12.4687 70.9744 21.5266 68.4113 29.9747 64.636C37.0051 61.4941 43.8046 57.3031 48.6809 51.1467C53.5571 44.9903 55.5961 37.4499 54.8646 29.6949C54.1507 22.1122 50.5728 15.019 44.8362 10.095C39.3403 5.37546 32.115 2.77376 24.9899 2.98333C24.134 3.00871 23.2733 3.06886 22.4225 3.18383C21.8239 3.26556 21.2211 3.01346 21.0483 2.36047C20.9052 1.81929 21.2317 1.04386 21.8358 0.965447L21.8338 0.975541Z" fill="#136EF6"/>
</svg>
