<svg width="42" height="42" viewBox="0 0 42 42" fill="none" xmlns="http://www.w3.org/2000/svg">
<path d="M18.5468 40.1773C14.1011 35.8294 10.0722 31.8343 5.62653 27.4864C10.1163 23.4758 14.1892 19.1125 18.679 15.1019C16.0539 20.6536 13.0265 26.5334 10.4015 32.0852C10.5304 31.8126 18.153 35.2333 18.8175 35.5474C19.494 35.8673 21.7325 36.6183 21.5651 37.388C21.4662 37.8429 20.8091 38.2442 20.4553 38.5465C19.8191 39.0901 19.1829 39.6337 18.5468 40.1773Z" fill="#F85F4C"/>
<path d="M27.8478 39.0435C22.5251 36.6303 17.6438 34.6423 12.3212 32.2291C11.9704 32.07 11.5408 32.0112 11.2327 31.7674C10.7525 31.3876 11.1997 30.9853 11.4268 30.5435C12.0791 29.2751 12.723 28.0023 13.3622 26.7272C14.6199 24.2183 15.8589 21.7001 17.1116 19.1888C18.0922 17.2229 19.0814 15.2613 20.0922 13.3108C20.1801 13.1412 20.3823 13.0651 20.5603 13.1344L20.9305 13.2786C20.9439 13.2839 20.9573 13.2896 20.9703 13.2959C21.9088 13.7428 22.8475 14.1893 23.7864 14.6355C26.3465 15.8521 28.9078 17.0662 31.4684 18.2815C32.7582 18.8937 34.0478 19.5061 35.337 20.1193C35.7227 20.3027 36.5825 20.4911 36.7022 20.9547C36.7906 21.2972 36.52 21.6814 36.3952 21.9816C36.1262 22.6288 35.8548 23.2749 35.58 23.9196C33.4434 28.9317 31.0948 33.8478 28.5694 38.6754C28.4429 38.9173 28.1506 39.0232 27.8992 38.9169L17.6914 34.5991" fill="white"/>
<path d="M21.0141 15.795C23.0725 13.6211 29.4486 6.54212 31.507 4.36816L21.0141 15.795Z" fill="white"/>
<path d="M31.6195 4.54738C31.4661 4.47484 31.306 4.39692 31.2065 4.25935C31.1071 4.12177 31.0947 3.90541 31.226 3.79787C31.3715 3.67874 31.5942 3.75507 31.7413 3.8722C31.8591 3.96604 31.9623 4.09123 31.985 4.24014C32.0078 4.38905 31.9267 4.5599 31.7812 4.59896C31.6357 4.63802 31.4641 4.48748 31.5145 4.34551" fill="white"/>
<path d="M19.644 19.2625C19.7793 20.2776 20.8916 21.046 21.8888 20.8134C22.3846 20.6977 22.8502 20.3759 23.3552 20.4397C24.6356 20.6014 24.6219 22.8247 25.8598 23.1893C26.8795 23.4896 28.0764 22.2796 28.9245 22.9203C29.2776 23.187 29.3728 23.6658 29.5651 24.0643C29.8839 24.7253 30.5378 25.2137 31.262 25.3318C31.9863 25.4499 32.7615 25.1947 33.2738 24.6693" fill="white"/>
<path d="M17.7751 24.3653C17.8684 25.1264 17.9686 25.9095 18.3434 26.5784C18.7183 27.2473 19.4399 27.7819 20.2023 27.7003C20.6572 27.6516 21.0599 27.398 21.4827 27.2231C21.9055 27.0482 22.4218 26.9602 22.7974 27.2215C23.5958 27.7766 23.1112 29.365 24.0026 29.7535C24.6262 30.0253 25.2868 29.3951 25.9671 29.3956C26.5066 29.396 26.9622 29.7934 27.2972 30.2164C27.6322 30.6394 27.9152 31.1227 28.3624 31.4246C28.8096 31.7265 29.5003 31.768 29.8268 31.3384" fill="white"/>
<path d="M36.2123 20.0776C35.9634 19.9688 35.7083 19.891 35.5154 19.8039C33.515 18.8581 31.2283 17.7754 28.7581 16.6056C20.0177 12.4771 24.2986 14.5007 23.0461 13.9083C24.0071 12.9411 25.1641 11.7405 26.1936 10.655C26.4669 10.6988 26.7295 10.7774 26.9941 10.8728C29.4613 11.7949 29.0614 11.7988 31.8861 9.81357C32.0654 9.68661 34.3562 8.06203 34.5497 7.86169C34.8409 7.53296 34.7629 7.01066 34.3971 6.78522C34.2089 6.66527 30.9797 5.69889 30.593 5.82013C30.7045 5.68414 31.1777 5.1368 31.4119 4.78031C31.4133 4.77811 31.4141 4.77651 31.4155 4.77439C31.7857 5.16324 32.4322 4.7595 32.3364 4.17024C32.2634 3.70769 31.7298 3.33078 31.2907 3.43124C30.798 3.54426 30.7088 4.19291 31.1362 4.47456C30.4882 5.02702 30.0342 5.50682 30.0654 5.47689C30.1136 5.41169 30.1214 5.25252 30.0053 4.77925C29.9247 4.45101 29.7849 3.97242 29.5584 3.2712C29.0515 1.74588 29.1645 2.08505 29.0891 1.86365C28.914 1.28178 28.1516 1.16944 27.8129 1.6556C27.2944 2.40658 25.1294 5.62223 24.772 6.25425C24.1388 7.3951 24.6845 7.89707 25.4158 9.3496C25.553 9.61799 25.6424 9.84008 25.6881 9.99788C25.7099 10.065 25.7214 10.1177 25.7308 10.1597C24.6917 11.3263 23.5407 12.6453 22.6354 13.7123C21.8762 13.3573 20.8573 12.8438 20.5074 12.7821C20.327 12.7634 20.1434 12.8101 20.0034 12.919C19.8378 13.0486 19.8046 13.1549 19.7141 13.3296V13.3328L19.7135 13.3338C17.217 15.1897 8.09869 23.9224 5.92126 26.0803C5.27467 26.718 4.88728 27.1271 4.92049 27.1644C4.93031 27.1754 4.98137 27.1494 5.0612 27.0973C5.42326 27.7265 10.6772 33.2326 13.2395 35.8163C18.144 40.762 18.361 40.7519 18.5023 40.6119C18.6435 40.4718 18.6554 40.2549 13.7508 35.3092C11.2026 32.7396 5.78577 27.4834 5.11057 27.0646C5.31014 26.9273 5.65591 26.6576 6.10868 26.2888C9.67733 23.3672 16.7108 16.8948 19.0524 14.6437C19.0521 14.6443 19.0517 14.6449 19.0514 14.6456C14.5193 23.6671 11.5906 29.8049 10.9719 30.8296C10.7101 31.3252 10.6623 31.7196 11.2301 32.0523C11.591 32.2607 11.9519 32.3105 12.2288 32.4381C12.8893 32.7326 22.1594 36.771 22.1905 36.7843C21.7408 37.234 18.5982 40.1965 18.6843 40.2905C18.7968 40.4255 22.4994 37.1951 22.707 37.0114C27.463 39.081 27.8055 39.2441 27.9772 39.267C28.3006 39.3087 28.5966 39.1807 28.7768 38.9466C29.85 37.5496 36.9478 22.0856 37.0679 21.2443C37.1636 20.6596 36.743 20.3363 36.2123 20.0776ZM31.6671 4.28877L31.6663 4.28892L31.6601 4.28983H31.66C31.663 4.28939 31.6655 4.28903 31.6671 4.28877ZM31.3954 4.02198C31.4007 4.04909 31.407 4.08024 31.4209 4.07275C31.4501 4.08848 31.4947 4.11943 31.5265 4.15224C31.62 4.2417 31.6119 4.26305 31.6311 4.2942C31.6169 4.2964 31.6246 4.29523 31.6359 4.29352C31.6303 4.29219 31.6637 4.30567 31.6842 4.32511C31.7067 4.34422 31.7185 4.36586 31.7195 4.36985H31.7196L31.7209 4.37449C31.6562 4.42021 31.6375 4.38778 31.5186 4.34707C31.4453 4.25878 31.3391 4.12305 31.3954 4.02198ZM30.4957 5.93004C30.472 6.02027 30.5007 6.11731 31.0808 6.36294C31.8179 6.67507 33.1763 7.1124 34.0107 7.38249C34.0113 7.38454 34.0117 7.3842 34.0117 7.3842C34.0117 7.3842 34.0117 7.38587 34.0112 7.38701C34.012 7.38647 34.0121 7.38644 34.0112 7.38708C34.0111 7.38739 34.0115 7.38765 34.0111 7.38784C34.007 7.3905 34.0077 7.38982 34.0091 7.38868C34.002 7.39403 33.9764 7.41313 33.895 7.47295C30.5069 9.96712 29.7281 10.7464 29.2396 10.9248C28.5911 11.1789 27.1763 10.4585 26.3333 10.5345C26.3222 10.5352 26.3145 10.5372 26.3041 10.5382C27.4556 9.32615 28.2147 8.49051 29.1055 7.50675C29.2093 7.56428 29.4147 7.6069 29.5159 7.6372C29.7666 7.69705 29.799 7.64533 29.8394 7.54841C29.8761 7.46376 29.9109 7.36232 29.5859 7.28397C29.513 7.26874 29.4025 7.26977 29.301 7.28963C29.3015 7.28902 29.302 7.28845 29.3025 7.28789C29.8027 6.73493 30.1942 6.28756 30.4957 5.93004ZM25.2746 8.2328C24.6756 6.68051 24.7691 7.36942 28.0121 2.63668C28.1505 2.43418 28.3072 2.20708 28.4058 2.06409L28.4069 2.06466C28.4335 2.13944 28.9207 3.45948 28.9322 3.49071C29.1931 4.17989 29.3827 4.64101 29.5247 4.94772C29.8088 5.56109 29.9027 5.5568 29.9965 5.52391C30.017 5.51673 30.036 5.50727 30.0525 5.49197C29.7358 5.81796 29.5674 5.98106 28.7551 6.84598C28.7137 6.66285 28.6346 6.43286 28.5716 6.29922C28.369 5.86935 28.2918 5.89476 28.2019 5.93714C28.1119 5.97952 28.0433 6.02289 28.2459 6.45276C28.319 6.60801 28.4784 6.86307 28.6048 7.00852C27.1131 8.61232 27.3772 8.33579 27.1464 8.58531C27.1395 8.42607 27.1028 8.22122 27.0648 8.10178C26.9443 7.72356 26.8649 7.74012 26.7702 7.77031C26.6754 7.8005 26.6012 7.8329 26.7217 8.21108C26.7696 8.36151 26.8976 8.62245 27.0006 8.7436C26.6331 9.15085 26.3524 9.46096 25.8305 10.0443C25.8305 10.0443 25.8295 10.0449 25.8293 10.0455C25.854 9.53843 25.491 8.76134 25.2746 8.2328ZM36.2745 21.3936C32.1201 31.3018 28.2726 38.5514 28.2883 38.5203C28.2586 38.5798 28.207 38.6189 28.1452 38.6354C28.0694 38.6448 18.8395 34.9845 12.4185 32.0212C12.0639 31.8625 11.7216 31.8003 11.4728 31.6479C11.2021 31.4612 11.2052 31.4021 11.3856 31.0785C12.0174 30.0857 14.8412 24.3029 19.6799 14.8416C19.6864 14.8289 20.3858 13.4542 20.3985 13.4479C20.4359 13.4385 20.3705 13.4168 20.6163 13.5132C21.6811 14.0217 21.4885 13.9251 22.1781 14.2567C21.9101 14.5694 21.542 15.0278 21.419 15.187C21.2199 14.7328 20.943 14.4434 20.7283 14.5025C20.4514 14.5772 20.3736 15.1932 20.5572 15.8776C20.7408 16.5621 21.1141 17.0567 21.391 16.9821C21.671 16.9074 21.7488 16.2914 21.5652 15.607C21.5465 15.5416 21.5279 15.4763 21.5061 15.4141C21.8435 15.1075 22.3802 14.5795 22.5328 14.4216C27.2772 16.6803 31.6919 18.7834 35.2168 20.4603C35.5388 20.601 36.2503 20.8113 36.3399 21.0172C36.3741 21.0483 36.3647 21.2008 36.2745 21.3936Z" fill="black"/>
<path d="M34.0118 7.38712V7.38702L34.0091 7.38918L34.0118 7.38712Z" fill="black"/>
<path d="M28.6223 9.1366C28.453 9.11924 28.1834 9.12768 27.962 9.1696C27.74 9.21001 27.5685 9.27826 27.5748 9.3269C27.5811 9.37681 27.7592 9.39876 27.9713 9.42405C28.1863 9.44881 28.4321 9.47711 28.5878 9.49503C29.1582 9.56453 29.1849 9.5174 29.2082 9.4127C29.2291 9.32417 29.2409 9.21221 28.6223 9.1366Z" fill="black"/>
<path d="M28.2043 30.867C28.2043 30.867 28.2043 30.867 28.2043 30.8639C27.6882 30.276 27.4611 29.6254 26.6363 29.1994C25.723 28.7597 25.0269 29.3635 24.4492 29.4515C23.4209 29.5906 23.9899 27.73 23.0648 27.0185C22.8807 26.8575 22.6057 26.7417 22.2434 26.7417C21.2031 26.7504 20.6281 27.6017 19.7639 27.4199C19.291 27.3265 18.8803 26.9968 18.6159 26.6359C18.3514 26.2719 18.2021 25.8612 18.0994 25.519C17.9065 24.819 17.8319 24.3554 17.7759 24.3648C17.7051 24.3757 17.6885 25.8987 18.283 26.863C18.7883 27.6692 19.6888 28.1827 20.6443 27.8866C21.2423 27.7089 21.6844 27.3585 22.2372 27.3732C23.3186 27.4025 22.6895 29.2505 23.6403 29.9585C24.3542 30.4842 25.1898 29.9272 25.647 29.8092C25.927 29.7252 26.1199 29.7377 26.3345 29.8372C27.1226 30.2018 27.3901 31.2467 28.335 31.7505C28.4843 31.6012 28.6305 31.455 28.7705 31.3119C28.5462 31.2255 28.3692 31.0548 28.2043 30.867Z" fill="black"/>
<path d="M19.2553 12.2928C19.3417 12.2437 18.9169 11.3346 18.6863 10.9296C18.2654 10.1904 18.1865 10.2149 18.1001 10.2641C18.0137 10.3133 17.9525 10.3686 18.3733 11.1078C18.6039 11.5128 19.1689 12.3421 19.2553 12.2928Z" fill="black"/>
<path d="M19.8876 11.5171C19.9865 11.5074 19.9986 10.8 19.9669 10.474C19.909 9.87906 19.8275 9.87442 19.7286 9.88403C19.6296 9.89368 19.5506 9.91392 19.6085 10.5089C19.6402 10.8349 19.7886 11.5267 19.8876 11.5171Z" fill="black"/>
<path d="M21.3762 10.713C21.5179 10.2596 21.4439 10.2261 21.349 10.1964C21.2541 10.1667 21.1742 10.1522 21.0325 10.6056C20.9549 10.854 20.8652 11.4112 20.9601 11.4408C21.055 11.4705 21.2986 10.9614 21.3762 10.713Z" fill="black"/>
<path d="M36.0484 26.6582C35.8364 27.0438 35.4783 27.8248 34.721 29.3272C32.9742 32.7976 31.923 34.4109 32.0025 34.4618C32.131 34.5447 35.1036 29.9409 36.2811 26.7617C36.489 26.178 36.339 26.1137 36.0484 26.6582Z" fill="black"/>
<path d="M36.1372 29.6467C36.05 29.5989 35.9686 29.5797 35.4572 30.5141C35.1769 31.026 34.6461 32.1634 34.7333 32.2112C34.8206 32.2589 35.4927 31.199 35.773 30.687C36.2845 29.7527 36.2245 29.6944 36.1372 29.6467Z" fill="black"/>
</svg>
