<svg width="42" height="42" viewBox="0 0 42 42" fill="none" xmlns="http://www.w3.org/2000/svg">
<path d="M19.8181 16.3047C19.6598 16.2752 19.4915 16.239 19.3784 16.1245C19.2761 16.021 19.2377 15.8721 19.2043 15.7305C18.277 11.7978 18.8533 8.08018 19.4635 4.08598C21.6746 3.8903 23.1679 4.10241 25.379 3.90673C26.5143 3.80625 27.8248 4.41285 28.9641 4.4445C32.1115 4.53193 33.9216 4.11665 37.0669 3.97187C37.2095 3.96531 37.3611 3.95815 37.4855 4.02817C37.6612 4.12706 37.7257 4.34464 37.7665 4.54212C37.983 5.58955 37.9733 6.66876 37.9627 7.73826C37.9348 10.5679 37.9069 13.3975 37.879 16.2271C37.877 16.4284 37.8666 16.6511 37.7263 16.7955C37.579 16.947 37.343 16.9569 37.1317 16.957C33.8915 16.9576 31.7268 16.9582 28.4866 16.9588C28.0991 16.9588 27.6831 16.9677 27.3687 17.1941C27.1948 17.3194 27.0702 17.4997 26.9384 17.6687C26.6429 18.0479 25.4003 19.4378 24.8314 19.2003C24.2709 18.9664 24.6725 17.2631 24.5147 16.7785C22.9527 16.592 21.3819 16.5954 19.8181 16.3047Z" fill="#F85F4C"/>
<path d="M22.5018 9.3554C21.9727 9.32384 21.4877 9.83428 21.5199 10.3633C21.5521 10.8923 22.0665 11.334 22.5961 11.3136C23.1256 11.2932 23.5953 10.8387 23.6621 10.3129C23.7288 9.78718 23.4075 9.2441 22.9266 9.02144C22.6794 8.907 22.3601 8.8813 22.1558 9.06146C21.9515 9.24163 22.0014 9.65979 22.2696 9.70739" fill="white"/>
<path d="M27.9691 9.2658C27.4401 9.23424 26.955 9.74469 26.9872 10.2737C27.0194 10.8027 27.5338 11.2444 28.0634 11.224C28.593 11.2036 29.0627 10.7491 29.1294 10.2233C29.1961 9.69758 28.8749 9.1545 28.3939 8.93184C28.1467 8.8174 27.8275 8.7917 27.6231 8.97186C27.4188 9.15203 27.4687 9.57019 27.7369 9.61779" fill="white"/>
<path d="M33.3468 9.1762C32.8177 9.14464 32.3327 9.65509 32.3649 10.1841C32.3971 10.7131 32.9115 11.1548 33.4411 11.1344C33.9706 11.1141 34.4403 10.6595 34.5071 10.1337C34.5738 9.60798 34.2525 9.0649 33.7716 8.84224C33.5244 8.7278 33.2051 8.7021 33.0008 8.88226C32.7965 9.06243 32.8464 9.48059 33.1146 9.52819" fill="white"/>
<path d="M19.9773 11.0406C19.8779 11.036 19.799 10.9976 19.8754 9.33521C19.9173 8.42436 20.0876 6.47323 20.187 6.47779C20.2863 6.48235 20.277 8.44092 20.2351 9.35177C20.1587 11.0141 20.0766 11.0451 19.9773 11.0406Z" fill="white"/>
<path d="M20.3847 14.9811C20.2852 14.9811 20.2046 14.9732 20.2046 14.5952C20.2046 14.3883 20.2852 13.944 20.3847 13.944C20.4841 13.944 20.5647 14.3883 20.5647 14.5952C20.5647 14.9732 20.4841 14.9811 20.3847 14.9811Z" fill="white"/>
<path d="M6.36229 28.7896C6.54731 29.5399 6.64096 29.5557 6.7391 29.5399C7.08273 29.4846 6.77337 28.0722 6.27782 23.5326C5.67363 17.6197 5.7673 14.6644 5.64341 13.6082C9.39963 13.1987 12.8956 12.6583 18.5213 12.7656C18.5591 13.1573 18.6478 13.8047 18.6643 13.9069C18.5968 13.8858 18.4547 13.871 18.142 13.8695C13.9257 13.873 4.15798 15.2119 7.87432 14.9397C16.807 14.2246 18.3978 14.1632 18.6797 14.0269C18.6854 14.0582 18.9674 15.9627 19.2146 16.6033C19.1096 16.6479 19.0949 16.7145 19.0859 16.7871C19.0736 16.8857 19.0717 16.9762 19.3079 17.0698C19.5445 17.16 20.0179 17.2705 20.9756 17.3127C21.5029 17.3385 22.325 17.2686 22.9937 17.1786C23.6656 17.0895 24.2132 17.0034 24.2139 16.9028C24.2146 16.8046 23.6615 16.7107 22.9774 16.6695C22.2905 16.63 21.4995 16.6177 21.0016 16.593C20.2216 16.5587 19.5934 16.5167 19.3146 16.5743C19.3146 16.574 19.3146 16.5738 19.3146 16.5735C19.3336 16.0794 19.1531 14.4673 19.0564 12.0843C18.8722 7.46044 19.0942 4.28136 18.8946 3.68123C19.507 3.7186 21.2447 3.67683 23.2937 3.64948C32.9861 3.4887 37.9899 4.04784 38.0166 3.54816C38.0219 3.44881 37.9901 3.35706 37.0744 3.2451C34.2523 2.92683 28.5654 2.7826 23.2737 3.14059C21.1556 3.277 19.3796 3.46248 18.8335 3.57672C18.8331 3.57641 18.8327 3.57566 18.8324 3.57535C18.8044 3.55363 18.7763 3.55044 18.7452 3.5474C18.6488 3.54117 18.5555 3.56289 18.4559 4.18512C18.3657 4.81053 18.2444 6.04252 18.2568 8.46289C18.263 9.41491 18.3253 10.7589 18.4497 12.0843C14.9172 12.0843 11.1305 12.401 7.45505 13.1203C5.62966 13.5095 5.68766 13.5695 5.64087 13.5841C5.45185 12.0859 4.66278 21.4631 6.36229 28.7896Z" fill="black"/>
<path d="M35.4203 36.6842C35.4203 36.6418 35.4079 36.601 35.2677 36.5629C35.6464 36.4408 35.2844 35.9576 33.9051 33.6274C33.1763 32.4025 31.6769 29.7615 31.1057 29.1355C31.099 29.1208 31.0876 29.1064 31.0665 29.0927C31.0908 28.9754 31.3919 29.8422 31.871 23.4211C31.983 21.8873 32.1075 19.4762 32.207 17.4509C32.2101 17.3919 32.2132 17.3328 32.2164 17.2767C32.9475 17.2984 33.635 17.3141 34.167 17.3203C36.5439 17.3388 37.4866 17.286 37.8599 17.1957C37.8603 17.1956 37.8605 17.1956 37.8609 17.1954C37.8903 17.2491 37.9279 17.2615 37.9682 17.2673C38.0666 17.2814 38.1591 17.2697 38.3109 16.6408C38.4478 16.0111 38.6855 14.7627 38.7944 12.2862C38.8181 11.6079 38.8312 10.7341 38.7979 9.807C38.7663 8.87974 38.6956 7.90008 38.5992 7.00913C38.4068 5.22616 38.1106 3.80383 38.0166 3.81705C37.9137 3.83087 38.0304 5.27234 38.0913 7.04558C38.122 7.93228 38.1394 8.90162 38.1343 9.81611C38.131 10.7306 38.098 11.5898 38.0748 12.2576C37.9671 14.7089 37.8001 16.0316 37.803 16.7725C37.3919 16.6823 36.4304 16.6171 34.1732 16.5984C33.6475 16.5954 32.9693 16.5984 32.2475 16.6078C32.0981 16.6109 31.9457 16.6141 31.7933 16.6171C30.1147 16.6513 28.3339 16.7289 27.7381 16.8315C27.7288 16.8249 27.7191 16.819 27.7093 16.8132C27.6214 16.7614 27.5408 16.7371 27.279 17.0186C27.1493 17.1605 26.9599 17.3677 26.6796 17.6746C26.3946 17.9741 26.0072 18.3698 25.429 18.7964C25.1884 18.9719 24.8874 19.1747 24.5433 19.346C24.4572 19.3884 24.3696 19.4325 24.2781 19.4674C24.2531 19.4803 24.2583 19.4843 24.2411 19.4874C24.2149 19.4938 24.1824 19.4609 24.1991 19.425C24.2022 19.4179 24.1984 19.4224 24.2072 19.4051L24.2395 19.3418L24.3004 19.2139C24.3387 19.128 24.3772 19.043 24.41 18.9567C24.4792 18.7856 24.5336 18.6134 24.5808 18.4466C24.672 18.1119 24.7225 17.7952 24.7386 17.5242C24.7724 16.9808 24.6906 16.6322 24.6339 16.6344C24.5677 16.6352 24.5309 16.9787 24.4017 17.4705C24.3381 17.7165 24.2468 17.9984 24.1252 18.2905C24.0629 18.4361 23.9957 18.5854 23.917 18.7322C23.8793 18.8063 23.8368 18.8787 23.7951 18.952L23.6362 19.211C23.4062 19.5452 23.5845 20.0225 23.9529 20.1402C24.1274 20.2119 24.3414 20.1685 24.515 20.0931C24.6259 20.0579 24.7301 20.0132 24.8324 19.9692C25.2412 19.7914 25.5861 19.5731 25.8537 19.3779C26.4959 18.9038 26.9002 18.4589 27.1816 18.1086C27.461 17.7554 27.6158 17.4909 27.7019 17.3022C27.7667 17.1578 27.7949 17.0599 27.8009 16.9908C28.2092 17.059 29.0384 17.1213 29.9981 17.1772H29.9987C29.7386 17.6897 29.3705 25.5619 29.3921 26.825C28.5573 26.6098 8.53851 27.3294 7.9326 27.4862C7.95968 27.1738 7.90169 26.1693 7.62867 22.9057C7.32491 19.2624 6.83088 12.5536 6.88993 15.848C6.9584 19.4191 7.39736 25.0898 7.6788 27.0175C7.76805 27.6151 7.81514 27.6348 7.86466 27.6301C7.89474 27.6272 7.91973 27.6169 7.9315 27.4998C8.50182 27.6235 28.5675 27.1939 29.395 26.9298C29.4606 28.5281 30.3253 17.7369 30.1233 17.1833C30.6365 17.2114 31.1806 17.2363 31.7186 17.255C31.7124 17.3047 31.7061 17.3545 31.6999 17.4073C31.3784 20.2313 30.8507 26.8155 30.8444 28.3117C30.8412 28.7816 30.8755 28.9651 30.9284 29.0398C30.9295 29.0413 30.9307 29.0423 30.9319 29.0438C30.4438 28.9303 28.6494 28.8946 22.0396 29.0853C8.0289 29.5142 6.73769 29.5303 6.7365 29.6285C6.73643 29.6388 6.77137 29.6494 6.82685 29.6602C6.35589 29.9539 4.21385 32.4399 3.20339 33.6662C2.19645 34.8853 1.68224 35.5019 1.454 35.851C1.22294 36.1968 1.27687 36.271 1.34948 36.3389C1.42209 36.4068 1.49858 36.4567 1.82936 36.1951C2.1565 35.9312 2.74257 35.355 3.75885 34.1246C4.81629 32.8411 6.83635 30.0534 6.9158 29.6744C10.2862 30.1399 29.8702 29.7938 31.0149 29.3032C31.2367 29.9382 32.4782 32.6372 33.2841 33.9921C33.566 34.4684 34.6442 36.248 35.1179 36.5317C32.5909 36.113 1.35936 36.3405 1.35882 36.621C1.35882 36.6216 1.3608 36.6224 1.3611 36.623C1.26707 36.6418 1.19469 36.8626 1.18306 37.1421C1.16841 37.4289 1.22636 37.7684 1.30277 37.9703C1.44162 38.3396 1.58008 38.4974 1.68224 38.5553C1.78782 38.6124 1.86742 38.5702 1.95401 38.5213C1.96722 38.5138 1.97938 38.5059 1.99195 38.4983C2.32862 38.5419 3.09682 38.5948 4.16536 38.6512C5.62726 38.7262 7.64751 38.8079 9.87929 38.8737C16.0963 39.0639 27.778 39.1985 33.9343 38.8682C35.5372 38.7766 35.5999 38.6856 35.5981 38.5861C35.5974 38.5451 35.5838 38.5058 35.4568 38.471C35.5236 38.4048 35.558 38.2374 35.5942 38.0484C35.7857 36.9653 35.8618 36.792 35.4203 36.6842ZM4.17166 38.3709C3.19329 38.3768 2.46594 38.3899 2.08974 38.4127C2.10949 38.3855 2.12532 38.3548 2.1306 38.3139C2.14739 38.2026 2.09673 38.0358 1.97839 37.721C1.91337 37.5484 1.7923 37.2828 1.68353 37.0481C1.59766 36.8674 1.51605 36.7064 1.43706 36.6461C3.09594 36.9215 32.7769 37.236 35.139 36.8328C34.8642 37.2897 34.9836 38.1309 35.2784 38.4365C34.0775 38.2667 30.4971 38.3436 4.17166 38.3709Z" fill="black"/>
<path d="M23.5348 34.7326C23.4258 34.3403 23.0781 34.0557 22.4648 34.0803C22.1669 34.0952 20.4825 34.3269 18.3091 34.3055C17.5003 34.3038 16.6698 34.2488 15.8657 34.1944C15.0287 34.1566 14.2176 34.3731 14.0383 35.1849C13.9679 35.4723 14.0422 35.7263 14.1442 35.854C14.2467 35.9839 14.3377 36.0072 14.3489 35.9915C14.3679 35.9696 14.3135 35.9058 14.2715 35.7843C14.148 35.4322 14.3933 34.8995 14.8348 34.755C15.5146 34.5073 16.2784 34.8765 18.2885 34.9687C19.1116 35.0137 19.889 35.0043 20.4913 34.9695C21.6644 34.9033 22.2418 34.7888 22.5018 34.7671C23.1162 34.7128 22.9288 35.1207 23.0424 35.7383C23.0929 36.0631 23.2514 36.2414 23.3414 36.2802C23.4376 36.3242 23.4708 36.2894 23.5051 36.2539C23.611 36.1447 23.5277 36.0818 23.5503 35.7008C23.5632 35.4125 23.632 35.0782 23.5348 34.7326Z" fill="black"/>
<path d="M21.4096 9.87883C21.1073 10.4342 21.3838 11.1853 22.0455 11.5027C22.6682 11.8174 23.4608 11.5342 23.836 10.884C24.4037 9.91807 23.6355 8.65296 22.6289 8.60339C22.3416 8.58607 22.06 8.69226 21.8972 8.90022C21.7363 9.12186 21.7527 9.31737 21.782 9.45773C21.6441 9.55161 21.5083 9.68939 21.4096 9.87883ZM21.9447 9.73512C22.0298 9.80925 22.1207 9.8328 22.1649 9.82201C22.2537 9.80576 22.2597 9.75487 22.2696 9.70732C22.2912 9.6048 22.2568 9.58499 22.2729 9.4749C22.4037 9.41003 22.5011 9.39226 22.5018 9.35534C22.5085 9.33666 22.451 9.30126 22.3484 9.29063C22.3491 9.29033 22.3499 9.28942 22.3506 9.28926C22.8223 9.0916 23.5657 9.8652 23.2199 10.5402C23.0499 10.8718 22.6656 11.0934 22.2826 10.9546C22.0933 10.8877 21.922 10.7418 21.8305 10.5715C21.6616 10.2881 21.7722 9.94886 21.9447 9.73512Z" fill="black"/>
<path d="M26.8769 9.78921C26.368 10.7242 27.4947 11.9018 28.5644 11.442C29.182 11.1909 29.5585 10.548 29.491 9.94704C29.3873 9.02296 28.6094 8.46431 27.9496 8.51621C27.7461 8.53155 27.5537 8.61662 27.4233 8.74483C27.2954 8.87152 27.2449 9.02571 27.2336 9.14071C27.225 9.22684 27.2357 9.29945 27.2525 9.36614C27.1135 9.46002 26.9764 9.59826 26.8769 9.78921ZM27.4118 9.64581C27.5 9.72319 27.631 9.76691 27.7002 9.70277C27.7255 9.67907 27.7311 9.64884 27.7369 9.6177C27.7582 9.54099 27.7284 9.47187 27.7369 9.3871C27.8693 9.32072 27.9684 9.30295 27.9692 9.26573C27.9757 9.2475 27.9202 9.21347 27.8221 9.20193C27.8237 9.2001 27.8244 9.19843 27.8261 9.19646C27.858 9.18218 27.9046 9.16562 27.9821 9.16896C28.4873 9.19192 28.9814 9.87634 28.6872 10.4506C28.6093 10.6027 28.4701 10.7503 28.2997 10.8334C27.6564 11.15 26.8331 10.363 27.4118 9.64581Z" fill="black"/>
<path d="M32.8905 11.3233C33.8383 11.8027 34.9849 10.8922 34.8687 9.8574C34.8216 9.3842 34.5876 9.02964 34.328 8.79601C34.0663 8.56252 33.7607 8.43826 33.4738 8.42413C32.9572 8.39298 32.5167 8.74998 32.627 9.27847C31.8555 9.80386 32.0257 10.9087 32.8905 11.3233ZM32.7897 9.55586C32.9672 9.7105 33.163 9.67156 33.1147 9.38268C33.1116 9.352 33.1133 9.32723 33.1179 9.29564C33.2487 9.23077 33.3461 9.213 33.3468 9.17608C33.3535 9.1574 33.2959 9.12185 33.1932 9.11122C33.194 9.11107 33.1948 9.10985 33.1956 9.10985C33.4155 9.01869 33.678 9.15058 33.851 9.31584C34.3392 9.78102 34.2012 10.4884 33.6774 10.7438C33.0317 11.0616 32.2131 10.2704 32.7897 9.55586Z" fill="black"/>
<path d="M4.23273 13.7542C4.3241 13.5775 3.02558 12.7244 2.38596 12.3936C1.21877 11.7897 1.12025 11.9202 1.02888 12.0969C0.937505 12.2735 0.887831 12.4294 2.05511 13.0331C2.69472 13.364 4.14136 13.9309 4.23273 13.7542Z" fill="black"/>
<path d="M5.07864 11.9989C5.25091 11.8996 4.63408 10.5069 4.28157 9.89541C3.63831 8.77949 3.48518 8.83676 3.31284 8.93595C3.14058 9.0353 3.01434 9.13921 3.65768 10.2551C4.01018 10.8666 4.9063 12.0981 5.07864 11.9989Z" fill="black"/>
<path d="M7.03084 11.4604C7.12608 11.4819 7.3241 11.0238 7.46932 10.4275C7.6185 9.83312 7.7 9.1041 7.69992 8.64017C7.70099 7.79266 7.60597 7.36474 7.52371 7.15388C7.4356 6.94288 7.34537 6.94592 7.24662 6.95731C7.14788 6.96871 7.05947 6.98876 7.01709 7.20508C6.96909 7.42185 6.98086 7.83277 6.97979 8.63592C6.97972 9.076 6.98147 9.76916 6.96468 10.3598C6.952 10.9497 6.93225 11.4383 7.03084 11.4604Z" fill="black"/>
<path d="M40.8511 16.6472C40.7547 16.6235 40.6623 16.6183 40.5234 16.8691C40.2591 17.3468 40.024 17.8595 39.4993 18.4482C38.5536 19.4512 37.9105 19.7929 36.7317 20.1792C36.4765 20.2497 36.3108 20.3043 36.3123 20.3558C36.3158 20.5138 38.351 20.7321 40.0363 18.928C40.4444 18.4701 40.6694 18.056 40.8054 17.7353C40.9027 17.5193 41.004 17.1747 41.0095 17.0209C41.0334 16.699 40.9475 16.6707 40.8511 16.6472Z" fill="black"/>
<path d="M39.9892 20.0366C39.7757 20.2526 39.4324 20.8296 39.5739 20.9693C39.7154 21.1091 40.2881 20.7588 40.5015 20.5428C40.8909 20.1487 40.7844 20.027 40.6429 19.8873C40.5015 19.7475 40.3787 19.6426 39.9892 20.0366Z" fill="black"/>
<path d="M14.7786 13.871L14.8376 13.8608L14.8815 13.8061C15.0005 13.6582 14.9849 13.441 14.858 13.3059C14.7456 13.1864 14.5658 13.168 14.444 13.2441C14.3843 13.2163 14.1872 13.4169 14.1853 13.4917C14.2658 13.7718 14.5364 13.9129 14.7786 13.871ZM14.4856 13.4965C14.4731 13.4934 14.4581 13.4861 14.4427 13.4735C14.4414 13.4719 14.442 13.4698 14.4411 13.4681C14.4691 13.4835 14.4973 13.4953 14.5245 13.5035C14.5435 13.5099 14.5684 13.5157 14.5866 13.5277C14.5873 13.5283 14.5871 13.5285 14.5876 13.5291C14.5777 13.5274 14.5687 13.528 14.5586 13.5251C14.534 13.5204 14.4958 13.4979 14.4856 13.4965Z" fill="black"/>
<path d="M17.6366 13.3995C17.6366 13.3 17.6241 13.2195 17.029 13.2195C16.703 13.2195 16.0032 13.3 16.0032 13.3995C16.0032 13.4988 16.703 13.5795 17.029 13.5795C17.6241 13.5795 17.6366 13.4988 17.6366 13.3995Z" fill="black"/>
<path d="M14.9653 17.107C15.3745 16.973 15.6633 17.0301 15.675 16.973C15.6914 16.9378 15.4088 16.771 14.9048 16.8333C13.7919 16.9858 12.9816 18.0637 13.351 19.2623C13.755 20.5424 15.1272 21.1057 16.2832 20.4343C17.1205 19.9536 17.523 19.0363 17.2185 18.1037C16.9297 17.25 16.219 16.8445 15.8939 16.8961C15.8095 16.9104 15.792 16.9545 15.7767 17.0017C15.7274 17.1541 15.8328 17.1946 16.0895 17.447C16.833 18.2393 16.8347 19.285 15.9255 19.8093C15.5574 20.0285 14.9529 20.1373 14.4721 19.7852C13.9859 19.4555 13.6886 18.7617 13.8648 18.1787C14.0311 17.5999 14.5678 17.2279 14.9653 17.107Z" fill="black"/>
<path d="M11.7118 25.1696C11.7237 25.4394 18.8666 25.4264 19.5301 24.9897C19.5674 25.0449 19.6095 25.0564 19.654 25.0601C19.7035 25.064 19.7509 25.0636 19.7972 24.9873C19.8437 24.9114 19.8967 24.757 19.8929 24.4524C19.8658 23.5823 19.4062 22.7597 18.7791 22.1829C16.7846 20.3542 13.2724 21.0743 11.5454 23.8987C11.2734 24.3396 11.1656 24.6422 11.2051 24.6651C11.2511 24.6925 11.4404 24.4398 11.7709 24.0651C12.0985 23.69 12.577 23.1931 13.19 22.7749C15.4836 21.176 18.6786 21.6407 19.4149 24.6247C18.3767 24.3318 11.7001 24.9027 11.7118 25.1696Z" fill="black"/>
</svg>
