<svg width="42" height="47" viewBox="0 0 42 47" fill="none" xmlns="http://www.w3.org/2000/svg">
<path d="M21.0504 7.77315C21.4034 7.72633 21.7576 7.93355 21.957 8.22947C22.1563 8.5254 22.2202 8.89478 22.2155 9.25186C22.211 9.58621 22.1423 9.93728 21.9231 10.1894C20.4226 11.9159 18.9371 8.05338 21.0504 7.77315Z" fill="#57E5B9"/>
<path d="M21.0504 1.99873C21.4035 1.95191 21.7576 2.15915 21.957 2.45507C22.1563 2.75099 22.2202 3.12037 22.2155 3.47744C22.211 3.81181 22.1423 4.16285 21.9232 4.41498C20.4226 6.1415 18.9371 2.27897 21.0504 1.99873Z" fill="#57E5B9"/>
<path d="M20.7842 4.78539C21.0478 4.75044 21.3122 4.90515 21.461 5.12608C21.6099 5.34702 21.6576 5.62278 21.6541 5.88936C21.6508 6.139 21.5994 6.40109 21.4359 6.58933C20.3155 7.87832 19.2065 4.9946 20.7842 4.78539Z" fill="#57E5B9"/>
<path d="M13.9233 16.7021C12.35 14.8577 11.7906 13.394 11 11.1511C13.31 12.1512 14.9594 12.5057 17.2693 13.5057C17.7879 13.7303 18.4771 13.9282 18.8655 13.5352C19.0137 13.3853 19.0764 13.18 19.1342 12.9828C19.8338 10.6014 20.5335 8.22003 21.2331 5.83862C22.187 8.21612 23.2351 10.5603 24.3745 12.8648C26.9421 11.1265 29.5097 9.3881 32.0774 7.64971C31.0699 10.9482 30.0624 14.2468 29.055 17.5454C28.21 16.55 26.7877 16.1704 25.4419 16.0133C22.1018 15.6235 18.6326 16.2823 15.7169 17.8601" fill="#F85F4C"/>
<path d="M21.0871 13.6328C20.9718 13.5933 20.9355 13.5531 21.204 12.5115C21.2715 12.2249 21.3778 11.7736 21.4685 11.3882C21.5553 11.0039 21.6228 10.6866 21.6788 10.69C21.733 10.693 21.7653 11.0204 21.749 11.4248C21.7349 11.829 21.665 12.3067 21.5931 12.6041C21.3138 13.6867 21.18 13.6658 21.0871 13.6328Z" fill="white"/>
<path d="M21.2206 3.87619C21.1104 3.8835 21.0206 3.88329 21.0011 3.58868C20.9905 3.4272 21.0569 3.07482 21.1671 3.0675C21.2773 3.06015 21.3895 3.40069 21.4002 3.56212C21.4197 3.85673 21.3307 3.86888 21.2206 3.87619Z" fill="white"/>
<path d="M34.3577 22.9057C34.8577 21.3973 34.4224 20.719 34.5244 20.0244C34.5767 19.664 34.6617 19.6562 34.9435 19.6306C35.1128 19.6142 35.2657 19.611 35.3828 19.4342C35.459 19.3192 35.4806 19.1711 35.4415 19.0273C35.3249 18.6004 35.1654 18.0379 35.0558 17.634C34.9957 17.4123 34.8064 17.255 34.5955 17.2513C32.7789 17.2183 30.9859 17.2185 29.1762 17.2137C29.2798 16.9139 29.4434 16.2543 29.7601 14.822C31.2402 8.406 31.7542 7.75678 31.7187 7.28539C32.8366 7.51811 33.7965 6.6302 33.6127 5.49598C33.3949 4.12473 31.8262 3.77409 31.0468 4.60233C30.8895 4.78207 30.8614 4.91297 30.8678 4.98724C30.5411 5.32597 30.4267 6.00537 30.7359 6.57322C30.6912 6.58398 30.6231 6.59694 30.5171 6.6584C30.4823 6.67811 30.273 6.79698 30.3077 6.77729C28.6748 7.70731 27.1429 8.71912 25.6781 9.84392C24.3977 10.824 23.5784 11.5692 23.5091 11.6271L23.5093 11.6269L23.5095 11.6268V11.6267C22.9874 10.5038 20.5281 5.18409 20.4197 5.01789C21.9541 4.15335 21.3509 1.5486 19.462 1.61787C18.6171 1.65825 18.0923 2.20903 18.0712 2.52844C17.399 3.2426 17.6135 4.87181 18.9946 5.21414L18.9739 5.28473C18.9661 5.31938 18.8611 5.7865 18.8688 5.75185C17.2645 12.9006 17.4315 12.3696 17.2574 12.5879C17.1115 12.7707 16.8565 12.887 16.585 12.8551C16.4665 12.8356 12.4483 11.3307 9.20957 10.1348C10.0196 9.00288 9.27954 7.19808 7.73456 7.25541C7.11887 7.28505 6.76692 7.55713 6.58052 7.7474C6.40906 7.93578 6.36614 8.07395 6.36159 8.15879C6.07378 8.46407 5.96008 8.96278 6.01229 9.37838C6.13783 10.5077 7.23293 11.0935 8.272 10.7912C8.28949 10.9928 8.0968 10.6125 10.8003 15.3811C11.1869 16.0572 11.5271 16.6468 11.8132 17.1366C11.125 17.144 10.3991 17.1522 9.61117 17.1637C9.36691 17.1674 9.13979 17.3565 9.08512 17.5954C8.97133 17.9993 8.48364 18.8897 8.7247 19.3192C8.90081 19.6317 9.2605 19.6018 9.58721 19.5929C9.54894 20.105 9.55496 20.5963 9.59923 21.0651C9.28555 21.4823 8.95274 21.9008 8.68926 22.3815C7.96734 23.4982 7.42261 24.8031 7.01947 26.1945C5.31077 32.272 7.59371 39.0726 13.3023 42.7915C15.9339 44.543 19.4609 45.3761 22.4184 45.1063C23.9485 44.9798 25.4403 44.6746 26.7781 44.108C32.0364 41.9529 35.6894 37.1936 35.99 31.2541C36.0232 28.8103 35.8698 31.6119 35.7891 31.9755C35.0396 37.1068 31.8562 41.5587 26.5937 43.6326C25.2953 44.1625 23.8536 44.4359 22.3804 44.5405C19.5022 44.7703 16.1262 43.9072 13.6638 42.2338C8.26999 38.647 6.12572 32.184 7.77374 26.4075C8.16139 25.0913 8.67861 23.8568 9.36573 22.8015C9.49109 22.5726 9.63559 22.3609 9.78445 22.1548C10.0291 23.1219 10.4731 23.9497 11.0914 24.5969C10.6765 25.3482 10.3441 26.181 10.0881 27.0624C8.7483 31.8152 10.5063 37.1821 15.0218 40.1346C17.0972 41.5211 19.8791 42.1799 22.2053 41.9726C27.6183 41.617 32.3238 37.355 32.9372 31.6361C32.9799 31.2772 32.9841 30.8524 32.9901 30.3543C32.9869 29.8943 32.9091 31.2782 32.8571 31.6266C32.6276 33.2997 32.1724 34.4128 31.5367 35.7121C29.7835 38.8869 26.3323 41.449 22.1863 41.6896C19.8829 41.8784 17.1799 41.1942 15.2025 39.8558C10.8529 36.9747 9.15263 31.7825 10.4652 27.1688C10.7044 26.3541 11.0077 25.5804 11.3857 24.8794C11.7512 25.2009 12.1645 25.4695 12.6285 25.671C13.2561 25.9437 13.9252 26.0722 14.6004 26.0722C16.8525 26.0722 19.173 24.6404 20.2621 22.343C20.6469 21.5323 21.1928 20.9602 21.7992 20.7318C23.2197 20.1982 23.7816 21.2065 24.4318 22.3755C24.6893 22.8383 24.9555 23.3167 25.2842 23.6778C27.0055 25.5684 29.5744 26.5021 31.8314 25.605C32.36 26.7781 32.4111 27.1961 32.6008 27.8586C32.6742 28.1811 32.7086 28.466 32.7554 28.7089C32.8824 29.3791 32.8843 30.265 32.9843 30.2643C33.0571 30.2639 33.0359 29.669 33.032 29.3185C33.0364 29.1389 33.0132 28.9284 32.9769 28.6788C32.9287 28.3532 32.9066 27.8451 32.5659 26.68C32.4451 26.3185 32.2993 25.9181 32.1146 25.4898C32.9168 25.1055 33.5789 24.5044 34.0357 23.655C34.4714 24.4807 34.7736 25.2374 35.0133 25.8935C35.4404 27.2205 35.4387 27.4306 35.6894 28.7395C35.7405 29.0321 35.8021 30.2654 35.9789 30.2643C36.1227 30.2635 36.1038 29.5327 36.1094 29.0681C36.0641 26.9742 35.3643 24.7506 34.3577 22.9057ZM25.0041 17.1792C24.7969 17.1704 24.5958 17.2536 24.4166 17.4052C23.2634 18.38 21.3635 18.4485 20.1657 17.2219C19.9717 17.0233 19.728 16.918 19.4719 16.9359C18.2974 17.0016 17.2385 17.0415 16.1931 17.0689C19.218 15.8669 22.3803 15.7363 25.5962 16.6694C26.9529 17.1579 26.9109 17.141 27.0411 17.2035C26.3692 17.1984 25.6912 17.1914 25.0041 17.1792ZM32.0506 4.90299C32.9084 4.93834 33.0874 6.11441 32.4694 6.49071C32.1445 6.71017 31.6082 6.69985 31.3151 6.43671C31.0219 6.19207 30.8478 5.69563 31.008 5.14025C31.2393 5.24699 31.4624 4.86923 32.0506 4.90299ZM18.1921 2.70756C18.3166 2.7685 18.3705 2.70903 18.6508 2.55458C20.388 1.6902 21.0209 3.80735 20.0059 4.40753C19.5847 4.68361 18.9085 4.66044 18.5393 4.31774C18.178 4.00234 17.9703 3.37736 18.1921 2.70756ZM6.82805 9.91883C6.47101 9.60813 6.26811 8.99355 6.48431 8.3354C6.60712 8.39511 6.65696 8.34057 6.93765 8.18713C7.09773 8.10821 7.35173 7.97778 7.73748 7.99439C8.86173 8.04578 9.05205 9.54108 8.26808 10.0055C7.855 10.2768 7.19075 10.2547 6.82805 9.91883ZM11.0734 15.2312C8.72133 10.7527 9.29284 11.8399 8.75887 10.8275C8.69628 10.6781 8.80624 10.5492 8.95165 10.5679C8.98663 10.5726 9.15491 10.6454 12.1396 11.8246C16.589 13.5752 16.4298 13.5856 16.9635 13.4853C17.4724 13.3841 17.8571 13.0198 18.0062 12.6114C18.0587 12.483 18.2508 11.6459 18.2827 11.5087C18.2912 11.4723 19.7203 5.4375 19.7211 5.43326C19.7269 5.42036 19.7795 5.42251 19.7781 5.43211C21.2802 8.70306 22.7672 11.9284 22.8739 12.1585C23.0447 12.5234 23.539 12.6945 23.9361 12.3181C25.7531 10.7478 27.4059 9.43173 29.8469 7.9444C30.9984 7.25214 30.9319 7.29051 30.9641 7.33412C30.9978 7.43614 29.976 10.2699 29.2062 14.7109C28.9545 16.2462 28.8938 16.916 28.906 17.2131C28.8475 17.2129 28.79 17.2128 28.7314 17.2126C28.3975 17.0079 28.1684 16.918 27.7324 16.7C23.6951 14.7375 18.5786 14.7277 14.2375 17.1079C13.5552 17.1178 12.6785 17.1276 12.0536 17.134C11.787 16.6088 11.4575 15.9694 11.0734 15.2312Z" fill="black"/>
<path d="M29.3916 30.9651C29.1719 30.8027 29.0915 30.8861 29.017 30.961C28.8175 31.1592 28.9635 31.2905 29.0329 31.6907C29.213 32.7929 28.3971 33.436 27.3483 33.2334C27.1701 33.1979 27.0481 33.1558 27.0105 33.2005C26.9288 33.2932 27.3292 33.7738 28.0412 33.8094C29.273 33.8958 30.1722 32.6961 29.7396 31.4809C29.6371 31.2037 29.4968 31.0486 29.3916 30.9651Z" fill="black"/>
<path d="M22.3013 35.6931C22.2645 35.703 22.1541 35.7326 21.97 35.7819C21.786 35.8312 21.5651 35.8904 21.3075 35.9595C21.0565 36.0168 20.7976 36.0813 20.5308 36.1528C20.2639 36.2243 20.02 36.2896 19.7992 36.3488C19.5758 36.3988 19.4135 36.4373 19.3123 36.4645C19.2571 36.4793 19.1869 36.4931 19.1016 36.5061C19.0163 36.5191 18.9181 36.5208 18.807 36.5111C18.669 36.5481 18.5557 36.5488 18.4673 36.5133C18.3764 36.4686 18.304 36.419 18.2499 36.3645C18.1583 36.2805 18.1177 36.2026 18.1281 36.1308C18.1384 36.059 18.2031 35.9874 18.3221 35.9161C18.441 35.8447 18.6131 35.7691 18.8382 35.689C18.9873 35.6195 19.217 35.5382 19.5274 35.4452C19.8446 35.3404 20.1872 35.2388 20.5553 35.1401C20.9302 35.0298 21.2845 34.9349 21.6182 34.8553C21.9587 34.7641 22.221 34.6938 22.405 34.6445C22.6443 34.5804 22.8634 34.5513 23.0622 34.5572C23.2586 34.5539 23.4163 34.5905 23.5355 34.6671C23.6288 34.721 23.6912 34.7881 23.7226 34.8685C23.7607 34.9372 23.77 35.0086 23.7505 35.0829C23.7309 35.1572 23.6893 35.2226 23.6255 35.2792C23.5593 35.3265 23.4731 35.3545 23.3669 35.3632C23.3209 35.3756 23.2347 35.4036 23.1084 35.4473C22.9795 35.4818 22.8381 35.5247 22.6841 35.5758C22.5369 35.6152 22.4093 35.6544 22.3013 35.6931ZM20.3856 34.1204C20.1439 34.1753 19.9218 34.2299 19.7194 34.2841C19.5261 34.3359 19.3789 34.3753 19.2776 34.4025C19.2224 34.4173 19.1522 34.4312 19.0669 34.4441C18.9816 34.4571 18.8834 34.4588 18.7723 34.4491C18.6343 34.4861 18.521 34.4868 18.4326 34.4514C18.3417 34.4067 18.2693 34.357 18.2152 34.3025C18.0745 34.1824 18.0541 34.0695 18.154 33.9638C18.2539 33.8581 18.4704 33.7459 18.8035 33.627C18.925 33.5649 19.1041 33.4972 19.3409 33.4239C19.5869 33.3481 19.8513 33.2674 20.1341 33.1817L20.3856 34.1204ZM20.1878 38.0201C20.0774 38.0497 19.9693 38.0145 19.8636 37.9146C19.7936 37.8742 19.7104 37.8028 19.6139 37.7004C19.5174 37.598 19.4426 37.4109 19.3895 37.1391C19.3432 36.8557 19.3371 36.4282 19.3714 35.8568C19.3698 35.4825 19.3756 35.2097 19.3889 35.0384C19.3997 34.858 19.3952 34.731 19.3755 34.6573C19.3484 34.5561 19.3354 34.4708 19.3365 34.4015C19.3444 34.3205 19.3397 34.2477 19.3225 34.1833C19.3777 34.1685 19.4193 34.1031 19.4474 33.9871C19.4755 33.8711 19.4846 33.7207 19.4745 33.536C19.4694 33.3697 19.4683 33.2368 19.4713 33.1374C19.481 33.0263 19.4809 32.9524 19.471 32.9156C19.4973 32.8296 19.5125 32.7022 19.5166 32.5335C19.5299 32.3622 19.5621 32.1514 19.6134 31.9009C19.613 31.6051 19.6194 31.2977 19.6325 30.9785C19.6432 30.6502 19.66 30.3448 19.683 30.0625C19.7127 29.7685 19.7401 29.5393 19.765 29.3748C19.7898 29.0624 19.815 28.8435 19.8406 28.7183C19.8638 28.5839 19.8428 28.5057 19.7778 28.4837C19.701 28.4549 19.638 28.3485 19.5887 28.1645C19.5461 27.9687 19.5891 27.7797 19.7178 27.5972C19.787 27.4505 19.8936 27.3331 20.0377 27.2452C20.1794 27.1481 20.3514 27.0724 20.5539 27.0181C20.7563 26.9639 20.9705 26.9164 21.1963 26.8756C21.3644 26.8404 21.5404 26.7982 21.7245 26.7489C21.9178 26.6971 22.0374 26.665 22.0834 26.6527C22.1761 26.6673 22.2884 26.6816 22.4204 26.6955C22.5523 26.7095 22.6705 26.7272 22.7748 26.7485C22.8859 26.7582 22.9452 26.7768 22.9526 26.8045C22.9674 26.8597 22.9956 26.8916 23.0374 26.9001C23.0859 26.897 23.1343 26.8938 23.1828 26.8907C23.2472 26.8735 23.3691 26.9049 23.5484 26.9851C23.7252 27.0561 23.9094 27.1547 24.1011 27.2808C24.2994 27.3954 24.4518 27.5222 24.5581 27.6614C24.6737 27.7981 24.7729 27.9293 24.8559 28.055C24.9481 28.1783 25.0057 28.3749 25.0288 28.6449C25.0566 28.7854 25.0705 28.9296 25.0707 29.0775C25.0801 29.223 25.0726 29.3236 25.0481 29.3795C25.0027 29.4311 24.9644 29.4907 24.9332 29.5582C24.902 29.6258 24.8926 29.6825 24.9049 29.7285C24.9147 29.7654 24.9026 29.8672 24.8684 30.0342C24.8318 30.192 24.7829 30.3777 24.7218 30.5913C24.6582 30.7958 24.5854 31.0027 24.5035 31.212C24.4215 31.4214 24.3388 31.5915 24.2555 31.7223C24.1753 31.9016 24.0697 32.0779 23.9386 32.2511C23.8166 32.4218 23.7024 32.5659 23.5957 32.6832C23.386 32.8578 23.1383 33.0376 22.8526 33.2226C22.576 33.4052 22.3037 33.567 22.0357 33.7078C21.7652 33.8395 21.5413 33.9241 21.364 33.9618C21.107 34.0701 20.942 34.1538 20.869 34.2128C20.7936 34.2626 20.7548 34.3568 20.7525 34.4955C20.7385 34.6275 20.7258 34.764 20.7143 34.9052C20.712 35.0439 20.7183 35.1409 20.7331 35.1961C20.7245 35.2378 20.7102 35.3501 20.6902 35.5331C20.6794 35.7135 20.6621 35.9252 20.6385 36.1683C20.624 36.4089 20.6142 36.6482 20.609 36.8864C20.6037 37.1245 20.6037 37.3267 20.6088 37.493C20.6065 37.6317 20.5541 37.7493 20.4518 37.8458C20.3586 37.9398 20.2706 37.9979 20.1878 38.0201ZM20.9126 32.8844C20.9592 32.9113 21.0801 32.8839 21.2751 32.802C21.4702 32.7201 21.6956 32.5858 21.9513 32.3989C22.1181 32.2852 22.2812 32.1576 22.4405 32.0163C22.6091 31.8725 22.7661 31.7219 22.9113 31.5647C22.9861 31.4756 23.0618 31.3715 23.1383 31.2523C23.2124 31.124 23.3107 30.9201 23.4331 30.6407C23.4484 30.5873 23.471 30.4876 23.5009 30.3415C23.5375 30.1837 23.5674 30.0376 23.5905 29.9032C23.6388 29.7522 23.6711 29.5413 23.6874 29.2707C23.7011 28.9908 23.6628 28.7742 23.5724 28.6209C23.4623 28.3939 23.3173 28.2207 23.1373 28.1013C22.9549 27.9726 22.748 27.8998 22.5166 27.8829C22.3043 27.9004 22.1279 27.923 21.9874 27.9508C21.8561 27.9761 21.7159 28.0235 21.5669 28.093C21.4319 28.1785 21.3434 28.2713 21.3011 28.3714C21.2681 28.469 21.2321 28.666 21.1932 28.9625C21.1633 29.1086 21.1194 29.3127 21.0614 29.5748C21.0009 29.8277 20.9601 30.0803 20.939 30.3326C20.9361 30.9843 20.9133 31.4885 20.8708 31.8451C20.8375 32.1993 20.816 32.4319 20.8063 32.543C20.8426 32.6417 20.8577 32.7166 20.8517 32.7675C20.8431 32.8093 20.8634 32.8482 20.9126 32.8844Z" fill="black"/>
<path d="M21.4 12.7678C21.6208 12.7678 21.7998 12.7528 21.7998 12.0376C21.7998 11.6457 21.6208 10.8046 21.4 10.8046C21.179 10.8046 21 11.6457 21 12.0376C21 12.7528 21.179 12.7678 21.4 12.7678Z" fill="black"/>
<path d="M5.48458 35.534C5.38461 35.1111 5.31519 34.654 5.28284 34.2322C5.2162 33.3867 5.31877 32.6941 5.25875 32.6831C5.21135 32.6708 5.00556 33.3575 5.0002 34.241C4.97898 37.0041 6.64204 38.9837 6.86862 38.793C7.09529 38.6025 5.9807 37.688 5.48458 35.534Z" fill="black"/>
<path d="M6.32925 35.5535C6.32263 35.1647 6.36637 34.8428 6.31107 34.8272C6.26076 34.8117 6.11592 35.1176 6.04741 35.5307C5.89905 36.3477 6.11707 37.2649 6.44887 37.704C6.54803 37.8216 6.59422 37.8021 6.6431 37.7763C6.89733 37.6425 6.3314 36.9733 6.32925 35.5535Z" fill="black"/>
<path d="M22.6628 17.9526C22.7518 18.0183 22.8037 18.099 21.8354 19.4183C21.3049 20.1412 20.0942 21.6394 20.0052 21.5738C19.9162 21.5082 20.9828 19.9036 21.5133 19.1807C22.4815 17.8613 22.5739 17.887 22.6628 17.9526Z" fill="white"/>
<path d="M22.0513 18.3355C22.1449 18.3944 22.2052 18.467 21.4606 19.6574C21.0525 20.3097 20.1011 21.6619 20.0075 21.6031C19.914 21.5442 20.7138 20.0966 21.1218 19.4444C21.8664 18.254 21.9578 18.2767 22.0513 18.3355Z" fill="white"/>
</svg>
