<svg width="40" height="42" viewBox="0 0 40 42" fill="none" xmlns="http://www.w3.org/2000/svg">
<path d="M24.1508 18.7193C25.6509 18.1346 27.1144 17.3508 28.1824 16.1642C28.6664 15.6264 29.0702 14.9897 29.1718 14.2856C29.302 13.3821 28.9185 12.4829 28.3877 11.7421C27.2236 10.1176 25.3354 9.05713 23.3315 8.67236C21.3275 8.28759 19.219 8.54326 17.2706 9.19167C14.9682 9.95787 12.8138 11.3087 11.394 13.2419C9.92225 15.2461 8.36807 19.9078 11.7573 20.8479C12.5246 21.0607 13.3417 21.0379 14.142 20.9869C15.9059 20.8744 17.6633 20.6329 19.3945 20.2657C21.0726 19.9099 22.5652 19.3373 24.1508 18.7193Z" fill="#F85F4C"/>
<path d="M21.4394 19.2949C21.0735 18.8812 20.1978 18.5953 19.6161 18.7669C19.02 18.9427 18.7914 19.7752 18.8366 20.2841C18.886 20.84 19.3395 21.5859 19.9312 21.77C20.5026 21.9478 21.2567 21.4967 21.5517 21.0431C21.9034 20.5025 21.8561 19.7658 21.4394 19.2949Z" fill="white"/>
<path d="M26.7304 15.1786C26.6856 15.1802 26.6536 15.1674 26.6026 14.8949C26.5743 14.7593 26.541 14.5576 26.4554 14.2698C26.368 13.984 26.2365 13.6044 25.955 13.1605C25.8011 12.9178 25.5761 12.6219 25.2898 12.3498C25.0028 12.0791 24.6602 11.8303 24.3196 11.6488C23.6401 11.2743 23.0016 11.1643 23.0109 11.1179C23.0116 11.0804 23.6762 11.1124 24.4169 11.4535C24.7866 11.6182 25.1639 11.8621 25.4816 12.1397C25.799 12.4189 26.0498 12.7334 26.2154 12.9948C26.5187 13.4732 26.6523 13.886 26.7301 14.1963C26.8061 14.509 26.8184 14.7275 26.8197 14.8734C26.8164 15.1663 26.7707 15.1773 26.7304 15.1786Z" fill="white"/>
<path d="M26.602 16.4088C26.5237 16.3677 26.4764 16.3345 26.5035 16.231C26.5237 16.1786 26.5713 16.0357 26.6448 16.0016C26.6848 15.9885 26.738 16.0247 26.7722 16.0897C26.8073 16.1534 26.8174 16.2413 26.8056 16.2937C26.7537 16.4859 26.6715 16.4469 26.602 16.4088Z" fill="white"/>
<path d="M12.2696 16.0207C12.2996 16.0508 12.3226 16.0829 12.2693 16.1802C12.2244 16.2822 12.0813 16.4413 11.9325 16.8199C11.849 17.0257 11.767 17.3707 11.773 17.6726C11.7733 17.9741 11.8501 18.2186 11.8091 18.2374C11.7744 18.2563 11.6168 18.0296 11.5558 17.6945C11.489 17.3623 11.5463 16.9498 11.6436 16.7112C11.8168 16.2712 12.0144 16.1069 12.1073 16.0339C12.2103 15.9652 12.2395 15.9906 12.2696 16.0207Z" fill="white"/>
<path d="M29.576 14.2148L29.5753 14.2124C29.4529 13.6888 29.1931 13.1889 28.8658 12.7346C28.404 12.1108 27.813 11.5398 27.1149 11.0786C26.7123 10.8067 26.2757 10.5708 25.8135 10.3713C25.8127 10.371 25.8119 10.3707 25.8111 10.3704C25.7992 10.2835 25.7804 10.1777 25.7503 10.0398C25.6817 9.73278 25.5655 9.28244 25.3513 8.62515C25.1291 7.97141 24.825 7.09838 24.2257 6.01969C24.0537 5.72614 23.8638 5.39846 23.597 5.05162C23.374 4.7661 23.0767 4.45866 22.6711 4.26536C22.6496 4.21759 22.6218 4.16496 22.5768 4.10138C22.4542 3.92978 22.1936 3.67524 21.7089 3.5547C21.2294 3.43512 20.571 3.47246 19.8166 3.7539C19.4022 3.90681 18.8969 4.16611 18.4301 4.54519C18.1979 4.73374 17.9715 4.95693 17.7952 5.2212C17.6264 5.4756 17.4962 5.74735 17.4077 6.01502C17.2293 6.55241 17.2277 7.06535 17.2962 7.41381C17.3139 7.50917 17.3354 7.59157 17.3581 7.66254C16.8799 7.73416 16.3603 7.90169 15.8731 8.17288C15.5086 8.37223 15.1576 8.62837 14.8672 8.94093C14.5924 9.23056 14.3758 9.55875 14.2088 9.88595C14.2084 9.88665 14.2082 9.8873 14.2078 9.88806C14.141 9.80728 14.0466 9.70209 13.9194 9.57509C13.6301 9.28941 13.1776 8.89023 12.5043 8.55164C11.8385 8.21617 10.9172 7.95862 9.88213 8.08699C9.36938 8.14987 8.82806 8.31152 8.34068 8.61159C7.84852 8.90275 7.42619 9.33046 7.09572 9.81598C6.44053 10.8009 6.15078 11.994 6.03508 13.1596C5.90473 14.3286 5.90304 15.5137 5.99174 16.6525C6.1698 18.9339 6.68715 21.0174 7.1149 22.6132C7.92853 25.5181 8.5756 27.695 9.18904 29.318C9.80214 30.9371 10.3652 31.9785 10.7834 32.6543C11.1746 33.2853 11.4362 33.6026 11.5924 33.77C11.7001 34.049 11.8071 34.3257 11.914 34.6024C12.1706 35.2746 12.4444 35.9681 12.8473 36.6089C13.2476 37.2504 13.8029 37.8421 14.5221 38.2025C15.2407 38.5708 16.0681 38.6893 16.8573 38.6554C17.6531 38.6248 18.4251 38.4535 19.1657 38.2306C19.5411 38.1177 19.8967 37.9841 20.25 37.8617C20.6052 37.7361 20.961 37.6131 21.3136 37.4882C24.1338 36.4977 26.8799 35.568 29.4683 34.8232C30.7478 34.4483 32.054 34.1661 33.2052 33.5566C33.7764 33.2558 34.3134 32.8647 34.6918 32.3556C35.0839 31.8559 35.2789 31.2492 35.3273 30.6925C35.3767 30.1777 35.3246 29.6867 35.2435 29.2198C35.1649 28.7522 35.0553 28.312 34.9555 27.8768C34.7551 27.004 34.542 26.1639 34.3263 25.3536C33.8864 23.7326 33.4144 22.2316 32.9025 20.8527C31.9073 18.1946 30.7686 15.9941 29.576 14.2148ZM20.7206 9.64726C20.6275 9.42885 20.488 9.15529 20.2584 8.82851C20.1659 8.69953 20.0553 8.56527 19.9169 8.43099L19.9165 8.42956C19.902 8.26903 19.8713 8.0286 19.8387 7.72401C19.8113 7.44352 19.7888 7.10952 19.8189 6.7473C19.8534 6.38977 19.9414 5.98909 20.1482 5.64645C20.2209 5.52731 20.3113 5.41486 20.4087 5.30702C20.4848 5.51616 20.6556 5.86964 20.8363 6.28034C21.1162 6.90194 21.3972 7.65358 21.5629 8.1353C21.8247 8.89397 21.9462 9.34074 22.0453 9.59409L22.0453 9.5941C21.6021 9.58685 21.1608 9.60532 20.7206 9.64726ZM23.683 6.31056C24.2542 7.33822 24.5674 8.18098 24.8142 8.81197C25.0538 9.44719 25.2123 9.88115 25.3337 10.1699C25.3357 10.1747 25.3372 10.1778 25.3391 10.1824C24.4535 9.85968 23.4941 9.66599 22.519 9.61112L22.5183 9.60868C22.5182 9.60865 22.5181 9.60867 22.518 9.60869C22.5155 9.35275 22.4632 8.8523 22.1462 7.93391C21.9732 7.43013 21.6124 6.66869 21.2231 6.08024C20.9524 5.66302 20.6808 5.33432 20.5183 5.1897C20.68 5.03341 20.8641 4.89647 21.0654 4.79441C21.4456 4.59907 21.8777 4.54476 22.234 4.68154C22.5951 4.80998 22.8813 5.09627 23.108 5.40106C23.3346 5.70717 23.5221 6.03516 23.683 6.31056ZM17.8155 6.14912C17.9177 5.92218 18.0517 5.69704 18.2129 5.49026C18.3671 5.29319 18.5668 5.11742 18.7792 4.96323C19.204 4.65381 19.6642 4.43462 20.0258 4.30186C20.6895 4.05479 21.2184 4.02256 21.5707 4.08415C21.5922 4.08796 21.6113 4.09285 21.6317 4.09724C21.6222 4.09847 21.6125 4.09835 21.6032 4.09982C21.3241 4.13955 21.0604 4.23783 20.8259 4.36978C20.3566 4.63612 19.9945 5.02789 19.766 5.45794C19.5378 5.90022 19.4811 6.34738 19.4754 6.74263C19.4768 7.13876 19.5374 7.48346 19.6022 7.76571C19.651 7.96857 19.6994 8.13965 19.7433 8.27683C19.7428 8.27646 19.7425 8.27604 19.742 8.27567C19.7413 8.27317 19.7413 8.27317 19.7406 8.27079C19.6616 8.19855 19.5698 8.12998 19.4704 8.06367C19.291 7.94115 19.076 7.83946 18.8322 7.75385C18.5869 7.6819 18.3176 7.63265 18.031 7.62C17.8742 7.61491 17.7092 7.62002 17.5342 7.63861C17.5341 7.63865 17.5339 7.63862 17.5338 7.63866C17.5324 7.56611 17.5317 7.48356 17.5349 7.39002C17.5418 7.06006 17.6098 6.60401 17.8155 6.14912ZM14.5655 10.1236C14.7445 9.81932 14.9683 9.52586 15.2336 9.27063C15.4963 9.01613 15.8109 8.80729 16.1363 8.64554C16.7881 8.31633 17.4818 8.1912 17.9916 8.20836C18.9402 8.23679 19.4643 8.75841 19.7974 9.15569C19.9585 9.3598 20.0838 9.54524 20.1854 9.70584C19.0454 9.8614 17.9292 10.1578 16.8784 10.5566C15.765 10.9787 14.7155 11.5273 13.7972 12.1753C13.8267 12.0747 13.8621 11.9564 13.8985 11.8221C14.0317 11.3676 14.2106 10.7339 14.5655 10.1236ZM10.2299 20.9217C10.1571 21.8095 10.1 22.7324 10.073 23.6834C9.99778 23.3313 9.87295 22.8312 9.70947 22.1037C9.53619 21.3346 9.31948 20.313 9.12187 18.9447C9.01257 18.1953 8.89228 17.2275 8.81539 16.1925C8.73649 15.1579 8.70108 14.057 8.70766 13.0491C8.70787 12.0379 8.73732 11.1313 8.95211 10.5149C9.10565 10.0346 9.3401 9.75675 9.42267 9.6378C9.59807 9.62237 9.78616 9.61444 9.99137 9.62115C10.3509 9.63386 10.8073 9.69675 11.2734 9.86239C11.7398 10.0202 12.2019 10.2723 12.5784 10.5631C13.157 10.9966 13.5018 11.5138 13.6722 11.7278C13.6722 11.7282 13.6721 11.7286 13.672 11.729C13.6692 11.7482 13.6683 11.7643 13.6655 11.7836C13.6379 11.997 13.6251 12.1746 13.6208 12.3049L13.6182 12.3057C13.2444 12.5789 12.8929 12.872 12.5701 13.178C11.9888 13.7242 11.4883 14.3104 11.0994 14.9278C10.7117 15.5396 10.4196 16.1557 10.1978 16.7463C9.80804 17.8252 9.59165 18.9281 9.8201 19.9667C9.8934 20.3093 10.034 20.6353 10.2299 20.9217ZM8.54763 8.92397C8.97304 8.6454 9.45297 8.48565 9.92214 8.41275C10.8697 8.26456 11.7418 8.46803 12.3943 8.75803C13.0538 9.04987 13.5213 9.40939 13.8331 9.66238C13.9811 9.78385 14.094 9.88196 14.1748 9.95097C14.1748 9.95103 14.1748 9.95104 14.1748 9.95104C13.9127 10.4979 13.7851 11.0299 13.7138 11.4588C13.7138 11.4591 13.7138 11.4594 13.7137 11.4597C13.695 11.4116 13.6742 11.361 13.6487 11.3058C13.5088 11.005 13.2522 10.6103 12.8745 10.2506C12.5004 9.8887 12.0096 9.56573 11.4949 9.3574C10.9854 9.14157 10.4463 9.04616 10.032 9.0328C9.2692 9.00862 8.70551 9.16138 8.30304 9.29493C8.15284 9.34791 8.02957 9.39946 7.91817 9.44968C8.10885 9.24755 8.31812 9.06807 8.54763 8.92397ZM9.72401 29.1252C9.15187 27.526 8.51922 25.3391 7.71053 22.4512C7.28571 20.8674 6.76061 18.8181 6.55654 16.5938C6.45466 15.4832 6.43771 14.331 6.54265 13.1937C6.62923 12.0953 6.87646 11.0049 7.41641 10.1103C7.4761 10.1042 7.55505 10.0872 7.66786 10.0523C7.84126 10.0006 8.09101 9.91234 8.46268 9.81104C8.69383 9.75274 8.97485 9.68528 9.31249 9.64765C9.27776 9.6744 9.23965 9.70611 9.19573 9.74894C9.05146 9.88578 8.8723 10.1188 8.72825 10.4395C8.4249 11.0825 8.32883 12.0368 8.27303 13.0472C8.2104 14.0667 8.20086 15.1854 8.24969 16.2385C8.2964 17.2919 8.40146 18.2788 8.51261 19.0408C8.71356 20.4321 8.95111 21.4678 9.15757 22.2411C9.36369 23.0147 9.53972 23.5269 9.66794 23.8694C9.88865 24.4236 9.9839 24.5286 10.0555 24.5344C10.0407 25.7974 10.0932 27.1016 10.2415 28.431C10.3224 29.1193 10.4298 29.8131 10.5714 30.5104C10.6844 31.0588 10.8353 31.6042 11.0084 32.1407C10.664 31.4627 10.2189 30.5071 9.72401 29.1252ZM10.0731 23.6837L10.0744 23.6883C10.0744 23.6888 10.0744 23.6893 10.0744 23.6897C10.074 23.6877 10.0736 23.6857 10.0731 23.6837ZM29.3079 34.2736C26.7031 35.0285 23.9476 35.9741 21.129 36.9799C20.7771 37.1072 20.4245 37.232 20.0701 37.36C19.7124 37.4862 19.3619 37.6184 19.0095 37.7247C18.6425 37.8378 18.2713 37.9364 17.8949 38.0074C17.8949 38.0074 17.8949 38.0074 17.8949 38.0074C17.4965 37.9589 17.0379 37.8302 16.5769 37.5689C15.8224 37.1592 15.1806 36.3341 14.7777 35.2962C14.5657 34.7775 14.4189 34.2117 14.2399 33.611C14.0623 33.0173 13.87 32.4105 13.7507 31.7804C13.6843 31.466 13.6538 31.1459 13.6356 30.8246C13.6381 30.505 13.647 30.1803 13.733 29.8713C13.878 29.2418 14.2796 28.7064 14.8225 28.2859C15.3653 27.8634 16.008 27.5472 16.6641 27.2534C17.324 26.9638 17.9856 26.6898 18.652 26.4522C21.3123 25.4845 23.9334 24.9182 25.9721 24.5374C26.9039 24.3661 27.7826 24.2246 28.6091 24.102C28.8138 24.0734 29.0238 24.0393 29.2148 24.0164C29.3968 23.9954 29.5737 23.9864 29.7337 24.0064C29.8969 24.0203 30.0361 24.0704 30.1622 24.1338C30.2808 24.2095 30.3937 24.2926 30.4805 24.4146C30.6653 24.6433 30.7868 24.9457 30.9038 25.2387C31.0183 25.5343 31.1282 25.8365 31.2477 26.1197C31.4792 26.6672 31.6553 27.1816 31.7865 27.6698C31.918 28.158 32.0143 28.6195 32.1071 29.0456C32.2006 29.474 32.2848 29.8545 32.3415 30.2055C32.46 30.9055 32.4772 31.4736 32.4353 31.9263C32.3502 32.7781 32.1275 33.206 32.0209 33.4482C32.0206 33.4483 32.0204 33.4484 32.0202 33.4485C31.185 33.767 30.2568 33.9937 29.3079 34.2736ZM33.7313 25.5137C33.9482 26.3184 34.1567 27.1519 34.3549 28.0173C34.5513 28.886 34.7945 29.7728 34.7145 30.6548C34.6715 31.1335 34.5168 31.61 34.1956 32.0183C33.89 32.4327 33.4357 32.7738 32.92 33.0455C32.7638 33.1298 32.6005 33.2083 32.4324 33.2802C32.4321 33.2804 32.4317 33.2805 32.4313 33.2806C32.5893 33.0101 32.7669 32.5969 32.8673 31.9628C32.942 31.4728 32.9478 30.8574 32.8463 30.1235C32.7986 29.7563 32.721 29.358 32.6378 28.9327C32.5543 28.5047 32.4656 28.0349 32.3362 27.524C32.2074 27.0132 32.0277 26.4672 31.7945 25.9004C31.6822 25.6263 31.5806 25.339 31.4631 25.028C31.3405 24.7204 31.218 24.3838 30.9652 24.0596C30.8473 23.8951 30.6725 23.7494 30.4792 23.6319C30.2776 23.5241 30.0509 23.4505 29.8244 23.4288C29.5975 23.4006 29.3736 23.4124 29.153 23.4372C28.9412 23.4622 28.7435 23.4941 28.5329 23.5232C27.6995 23.6448 26.8128 23.7863 25.8715 23.9593C23.812 24.3443 21.1605 24.9331 18.4604 25.9469C17.7848 26.1957 17.1112 26.4835 16.4429 26.787C15.7782 27.0952 15.0996 27.4361 14.504 27.9131C13.9106 28.3781 13.4169 29.0552 13.2707 29.7809C13.1791 30.141 13.1756 30.5019 13.1807 30.8527C13.2066 31.2012 13.2477 31.5436 13.3237 31.8704C13.4633 32.5281 13.6737 33.1406 13.8649 33.7274C14.0538 34.3077 14.2232 34.8958 14.4579 35.4254C14.6877 35.9576 14.9713 36.4435 15.3118 36.8451C15.6473 37.2489 16.0489 37.5623 16.4547 37.769C16.7619 37.927 17.0655 38.0309 17.3517 38.0942C17.184 38.116 17.0167 38.1299 16.848 38.139C16.1252 38.1723 15.3987 38.067 14.7767 37.7553C14.156 37.4484 13.6599 36.9371 13.2859 36.3487C12.9079 35.7562 12.6388 35.0981 12.3764 34.425C12.1089 33.7534 11.8409 33.0897 11.6051 32.4221C11.3674 31.7578 11.1638 31.0862 11.0174 30.4114C10.873 29.7335 10.76 29.0491 10.6742 28.3728C10.3694 25.9068 10.4142 23.5092 10.5529 21.3034C10.5576 21.31 10.5655 21.3182 10.5727 21.3241C10.9571 21.6776 11.4242 21.8941 11.8808 22.0161C12.8037 22.2549 13.6766 22.1837 14.446 22.1291C15.2166 22.0689 15.9313 21.9878 16.5877 21.897C17.4389 21.7794 18.1969 21.6464 18.8704 21.5087C18.8809 21.5452 18.8906 21.5793 18.903 21.6126C19.0231 21.9445 19.2131 22.2299 19.4561 22.458C19.6958 22.6844 20.0236 22.8407 20.3482 22.8505C20.9137 22.849 21.3012 22.614 21.6026 22.388C21.9065 22.1611 22.1119 21.8519 22.1964 21.5853C22.3363 21.1446 22.2742 20.8119 22.1874 20.5865C23.2736 20.1855 23.8212 19.9283 24.1058 19.7887C24.3985 19.6389 24.4053 19.5948 24.3915 19.5566C24.3752 19.5191 24.3398 19.4923 24.0225 19.5755C23.7069 19.6554 23.1117 19.863 21.9725 20.2239C21.9699 20.2247 21.9699 20.2247 21.9673 20.2254C21.9079 20.1634 21.8543 20.1313 21.8166 20.1158C21.7483 20.0906 21.7134 20.1137 21.6824 20.1411C21.6488 20.1692 21.6243 20.1999 21.6283 20.262C21.6306 20.2798 21.6336 20.3 21.6413 20.3268C21.6562 20.3884 21.6832 20.4729 21.7162 20.5978C21.7255 20.6399 21.7337 20.6877 21.7413 20.7434C21.7676 20.9124 21.7701 21.1436 21.6626 21.4169C21.5866 21.5967 21.4653 21.7738 21.2337 21.943C21.0148 22.1085 20.6913 22.2672 20.3875 22.262C20.2358 22.2555 20.0499 22.1876 19.8742 22.0298C19.6981 21.88 19.5379 21.6598 19.4378 21.4171C19.435 21.4074 19.4304 21.4008 19.4276 21.3911C19.3812 21.2779 19.3529 21.1595 19.3445 21.0434C19.3422 20.9966 19.3399 20.9498 19.3427 20.9016C19.3453 20.8139 19.3588 20.7256 19.3756 20.6392C19.4309 20.3677 19.5587 20.1071 19.7405 19.9574C19.9095 19.8115 20.1905 19.7757 20.4364 19.7816C20.6854 19.7893 20.9128 19.8374 21.0934 19.8962C21.4648 20.0111 21.6463 20.1699 21.6824 20.1411C21.7155 20.121 21.5781 19.8837 21.1965 19.6849C21.0073 19.5863 20.768 19.4968 20.4782 19.4534C20.3333 19.4318 20.1757 19.4242 20.0066 19.4437C19.8418 19.4593 19.6451 19.5184 19.485 19.6275C19.1585 19.8529 18.9797 20.1967 18.8807 20.5386C18.8383 20.6905 18.81 20.8435 18.8065 21.0053C18.1321 21.1301 17.3764 21.2519 16.525 21.3591C15.8774 21.442 15.1742 21.5145 14.4157 21.5686C13.6591 21.6196 12.8445 21.6713 12.057 21.4597C11.669 21.3549 11.3014 21.1757 11.0046 20.9051C10.8504 20.7543 10.7209 20.5832 10.6173 20.3863L10.6166 20.3839C10.5291 20.214 10.4618 20.0278 10.4181 19.8269C10.3946 19.7255 10.378 19.6196 10.3641 19.513C10.2726 18.7197 10.4502 17.8202 10.7777 16.9305C10.8581 16.7177 10.9481 16.4996 11.0491 16.2809C11.0484 16.2785 11.0484 16.2785 11.0503 16.2753C11.2109 15.9262 11.4005 15.5714 11.6185 15.219C11.7768 14.9682 11.9551 14.7194 12.1568 14.4745C12.1561 14.472 12.1586 14.4713 12.1586 14.4713C12.4074 14.1681 12.6826 13.8704 12.9859 13.5832C14.0376 12.5781 15.4061 11.7298 16.9321 11.1209C16.9787 11.0997 17.0286 11.0801 17.0784 11.0605C17.5669 10.8678 18.074 10.7013 18.5887 10.5616L18.6118 10.555C19.2214 10.3881 19.8455 10.2618 20.4751 10.1841C20.4797 10.1906 20.4811 10.1955 20.4851 10.1996C20.6163 10.1831 20.7552 10.1644 20.8999 10.1466L20.8978 10.1392C21.0238 10.1242 21.1487 10.1147 21.2743 10.1077C21.2769 10.107 21.2769 10.107 21.2801 10.1087C21.5602 10.0889 21.8438 10.0814 22.1225 10.0859C23.8433 10.0984 25.532 10.5601 26.8619 11.4252C27.5296 11.8477 28.0977 12.3778 28.5444 12.9586C28.9827 13.5391 29.2892 14.1917 29.3092 14.8421L29.3106 14.8469C29.3398 15.5 29.0362 16.0957 28.6683 16.5832C28.2953 17.0722 27.8585 17.4741 27.4408 17.8073C26.5906 18.4702 25.7919 18.8678 25.2478 19.1372C24.6996 19.4024 24.3853 19.5347 24.3915 19.5566C24.3943 19.5663 24.4771 19.5453 24.632 19.4955C24.7863 19.4434 25.0121 19.3602 25.2978 19.244C25.8653 19.0075 26.6891 18.6395 27.586 17.9845C28.0295 17.6544 28.4921 17.2556 28.9033 16.745C29.1048 16.4896 29.2945 16.2034 29.4326 15.8818C29.5093 15.7043 29.5697 15.5184 29.6054 15.3237C30.5761 16.9189 31.5051 18.8238 32.3318 21.0585C32.8362 22.4211 33.3008 23.9058 33.7313 25.5137Z" fill="black"/>
<path d="M29.3884 27.1598C29.3779 27.0795 29.3403 27.0111 28.6032 27.0708C28.2354 27.1048 27.6917 27.1678 26.8951 27.3125C26.0982 27.4539 25.0458 27.668 23.6734 28.0362C22.923 28.2429 21.961 28.5238 20.9571 28.8763C19.9525 29.2265 18.904 29.6383 17.9626 30.0497C16.0779 30.8724 14.636 31.7015 14.6725 31.7678C14.7129 31.8442 16.2171 31.1487 18.1236 30.4318C19.0766 30.073 20.1281 29.706 21.1297 29.3881C22.1307 29.0678 23.084 28.8064 23.8245 28.6025C25.1785 28.2392 26.2129 28.012 26.9946 27.8435C27.7758 27.6716 28.3067 27.5671 28.6634 27.4811C29.3782 27.3174 29.3989 27.2401 29.3884 27.1598Z" fill="black"/>
<path d="M30.9275 29.2085C30.8261 28.9946 30.699 28.8423 30.5832 28.7292C30.3486 28.5042 30.1639 28.4053 30.037 28.3439C30.0324 28.3418 30.0289 28.3407 30.0243 28.3387C30.0374 28.3223 30.0545 28.3085 30.066 28.2913C30.1969 28.0982 30.1991 27.8634 30.1379 27.7107C30.0775 27.5549 29.9804 27.457 29.8893 27.3909C29.7025 27.2598 29.5298 27.2536 29.4273 27.2718C29.3215 27.2921 29.2762 27.3364 29.259 27.3749C29.2419 27.4136 29.2506 27.4511 29.2596 27.4906C29.2756 27.5735 29.3123 27.6303 29.384 27.6869C29.418 27.7167 29.4655 27.7474 29.5136 27.8066C29.5368 27.8352 29.5579 27.8722 29.5651 27.9046C29.5696 27.9387 29.5674 27.9528 29.5496 27.9852C29.5317 28.0198 29.4428 28.0964 29.332 28.1172C29.2214 28.1358 29.1497 28.1287 29.0941 28.0394C29.0385 27.9469 29.0508 27.8042 29.0904 27.7151C29.1257 27.6196 29.1851 27.5604 29.168 27.5209C29.1567 27.4871 29.0483 27.4716 28.911 27.5681C28.7774 27.6601 28.6334 27.8722 28.6717 28.1493C28.6889 28.2855 28.7719 28.437 28.91 28.5312C29.0461 28.6287 29.2126 28.6625 29.3608 28.6581C29.3914 28.6572 29.4196 28.649 29.4494 28.6454L29.3763 28.7393L29.3763 28.7393C29.3382 28.7258 29.2379 28.845 29.1158 29.0658C29.0034 29.2854 28.8349 29.6241 28.9071 30.0706C28.9505 30.2861 29.0598 30.5026 29.2496 30.6708C29.4361 30.8408 29.723 30.9404 29.9991 30.9092C30.2801 30.8801 30.5201 30.7337 30.676 30.5685C30.8376 30.4036 30.9315 30.2182 30.9842 30.0486C31.0318 29.8936 31.0499 29.7383 31.0341 29.5899C31.0173 29.4355 30.9748 29.317 30.9275 29.2085Z" fill="black"/>
<path d="M29.7567 9.47049C30.0774 8.27033 29.9507 8.21581 29.7863 8.17958C29.6218 8.14337 29.4818 8.13913 29.1611 9.33929C28.9855 9.99697 28.7417 11.4378 28.9062 11.474C29.0707 11.5102 29.581 10.1282 29.7567 9.47049Z" fill="black"/>
<path d="M30.2557 12.281C30.363 12.4041 31.2511 11.8579 31.6243 11.5569C32.3055 11.0076 32.2328 10.8963 32.1255 10.7733C32.0181 10.6502 31.9169 10.5619 31.2357 11.1113C30.8624 11.4122 30.1484 12.1579 30.2557 12.281Z" fill="black"/>
<path d="M32.944 13.8439C32.354 13.7922 31.0718 13.8127 31.0517 13.9745C31.0316 14.1363 32.2814 14.3783 32.8713 14.4299C33.9479 14.524 33.9866 14.3948 34.0067 14.233C34.0268 14.0712 34.0205 13.938 32.944 13.8439Z" fill="black"/>
<path d="M10.4729 36.9613C10.2763 36.4964 10.0073 35.7473 9.84964 35.0892C9.68411 34.434 9.60887 33.8796 9.52081 33.8828C9.43936 33.8845 9.35951 34.4571 9.4199 35.1643C9.47166 35.8714 9.69001 36.6945 9.8998 37.1897C10.2809 38.0957 10.6097 38.4929 10.7876 38.6793C10.9767 38.8611 11.0458 38.8261 11.1169 38.7798C11.188 38.7336 11.2459 38.682 11.1575 38.451C11.0795 38.2147 10.8301 37.8108 10.4729 36.9613Z" fill="black"/>
<path d="M7.941 36.8086C7.78957 36.8861 8.21334 37.9648 8.46805 38.4382C8.93277 39.302 9.06527 39.2573 9.21666 39.1797C9.36809 39.1022 9.48112 39.0213 9.0164 38.1575C8.76172 37.6841 8.09242 36.7311 7.941 36.8086Z" fill="black"/>
</svg>
